<?xml version="1.0" standalone="no"?>
<!DOCTYPE svg PUBLIC "-//W3C//DTD SVG 1.1//EN" "http://www.w3.org/Graphics/SVG/1.1/DTD/svg11.dtd" >
<!--
2013-9-30: Created.
-->
<svg>
<metadata>
Created by iconfont
</metadata>
<defs>

<font id="iconfont" horiz-adv-x="1024" >
  <font-face
    font-family="iconfont"
    font-weight="500"
    font-stretch="normal"
    units-per-em="1024"
    ascent="896"
    descent="-128"
  />
    <missing-glyph />
    
    <glyph glyph-name="x" unicode="x" horiz-adv-x="1001"
d="M281 543q-27 -1 -53 -1h-83q-18 0 -36.5 -6t-32.5 -18.5t-23 -32t-9 -45.5v-76h912v41q0 16 -0.5 30t-0.5 18q0 13 -5 29t-17 29.5t-31.5 22.5t-49.5 9h-133v-97h-438v97zM955 310v-52q0 -23 0.5 -52t0.5 -58t-10.5 -47.5t-26 -30t-33 -16t-31.5 -4.5q-14 -1 -29.5 -0.5
t-29.5 0.5h-32l-45 128h-439l-44 -128h-29h-34q-20 0 -45 1q-25 0 -41 9.5t-25.5 23t-13.5 29.5t-4 30v167h911zM163 247q-12 0 -21 -8.5t-9 -21.5t9 -21.5t21 -8.5q13 0 22 8.5t9 21.5t-9 21.5t-22 8.5zM316 123q-8 -26 -14 -48q-5 -19 -10.5 -37t-7.5 -25t-3 -15t1 -14.5
t9.5 -10.5t21.5 -4h37h67h81h80h64h36q23 0 34 12t2 38q-5 13 -9.5 30.5t-9.5 34.5q-5 19 -11 39h-368zM336 498v228q0 11 2.5 23t10 21.5t20.5 15.5t34 6h188q31 0 51.5 -14.5t20.5 -52.5v-227h-327z" />
    

    
    <glyph glyph-name="fenlei" unicode="&#58880;" d="M107.6754 577.9805h814.9628686526682c6.261 0 11.7425 2.3514 16.4385 7.0472 4.701 4.6948 7.0465 10.371 7.0465 17.0215 0 6.6685-2.3455 12.1508-7.0465 16.4458-4.696 4.3051-10.1785 6.4556-16.4385 6.4556H107.67541076334375c-7.0475 0-12.7229-2.1505-17.0302-6.4556-4.3053-4.3071-6.4559-9.7874-6.4559-16.4458 0-6.6505 2.1506-12.3266 6.4559-17.0215C94.9525 580.3319 100.6279 577.9805 107.6754 577.9805L107.6754 577.9805zM922.6383 11.9893H107.67541076334375c-7.0475 0-12.7229-2.3454-17.0302-7.0392-4.3053-4.7028-6.4559-10.1791-6.4559-16.4458 0-6.2618 2.1506-11.742 6.4559-16.4379 4.3073-4.6958 9.9826-7.0472 17.0302-7.0472h814.9628686526682c6.261 0 11.7425 2.3514 16.4385 7.0472 4.701 4.6958 7.0465 10.1771 7.0465 16.4379 0 6.2668-2.3455 11.743-7.0465 16.4458C934.3808 9.6439 928.8993 11.9893 922.6383 11.9893L922.6383 11.9893zM922.6383 318.4695H107.67541076334375c-7.0475 0-12.7229-2.3444-17.0302-7.0472-4.3053-4.6948-6.4559-10.1761-6.4559-16.4379 0-6.2598 2.1506-11.743 6.4559-16.4389 4.3073-4.6948 9.9826-7.0462 17.0302-7.0462h814.9628686526682c6.261 0 11.7425 2.3514 16.4385 7.0462 4.701 4.6958 7.0465 10.1801 7.0465 16.4389 0 6.2618-2.3455 11.742-7.0465 16.4379C934.3808 316.1261 928.8993 318.4695 922.6383 318.4695L922.6383 318.4695zM922.6383 318.4695"  horiz-adv-x="1000" />

    
    <glyph glyph-name="guanbi" unicode="&#58933;" d="M525.3913 443.2769l0.005 0.005L258.9251 709.7782 125.6 576.5505l266.5352-266.5243 0.023 0.023 133.2331-133.2277-0.023-0.023 266.4892-266.4783L925.0907 43.5479 592.0079 376.663 525.3913 443.2769zM125.6 43.5479l133.3251-133.2277 266.4423 266.4783L392.1352 310.0262 125.6 43.5479zM658.6245 310.0492 925.0907 576.5505 791.8576 709.7782 525.3963 443.2819l66.6116-66.6188L658.6245 310.0492z"  horiz-adv-x="1000" />

    
    <glyph glyph-name="gou" unicode="&#58897;" d="M834.9531 519.0805 419.218 71.383 195.3606 359.1889 277.3084 429.1414 419.218 281.2407 770.9939 583.0371Z"  horiz-adv-x="1000" />

    
    <glyph glyph-name="guanbi1" unicode="&#58935;" d="M286.062199 27.536883l-45.306914 45.311435c-12.511788 12.511788-12.511788 32.801907-0.00226 45.309174l181.238958 181.238958-181.236698 181.232177c-12.511788 12.514049-12.511788 32.801907 0 45.313695l45.306914 45.306914c12.514049 12.509528 32.797386 12.509528 45.311435-0.00226l181.232177-181.236698 181.236698 181.234437c12.511788 12.514049 32.801907 12.511788 45.311435 0l45.313695-45.311435c12.505007-12.505007 12.507267-32.797386-0.004521-45.306914l-181.234437-181.234437 181.236698-181.236698c12.509528-12.507267 12.507267-32.797386 0.00226-45.306914l-45.313695-45.309174c-12.509528-12.514049-32.797386-12.514049-45.309174 0l-181.234437 181.234437-181.236698-181.236698C318.859585 15.022834 298.576247 15.022834 286.062199 27.536883z"  horiz-adv-x="1024" />

    
    <glyph glyph-name="yonghuzhongxin" unicode="&#58940;" d="M512 812c-282.752 0-512-229.216-512-512s229.216-512 512-512 512 229.216 512 512-229.216 512-512 512zM820.064 21.12c-60.288 29.216-38.112 6.368-116.96 38.816-80.64 33.184-99.744 44-99.744 44l-0.704 76.064c0 0 30.208 22.752 39.616 94.688 18.848-5.408 25.248 21.952 26.272 39.424 1.12 16.864 11.136 69.536-11.904 64.832 4.736 35.136 8.448 66.912 6.72 83.744-5.76 59.04-46.88 120.704-150.72 125.216-88.256-4.512-145.568-66.208-151.36-125.28-1.664-16.832 1.728-48.576 6.432-83.776-23.04 4.768-13.152-47.968-12.128-64.864 1.12-17.472 7.36-44.928 26.272-39.52 9.376-71.904 39.616-94.88 39.616-94.88l-0.768-76.416c0 0-19.136-11.584-99.776-44.736-78.816-32.448-56.704-8.192-116.96-37.344-66.88 73.824-107.936 171.424-107.936 278.88 0 229.76 186.272 416 416 416 229.76 0 416-186.24 416-416 0-107.456-41.088-205.056-107.936-278.88z"  horiz-adv-x="1024" />

    
    <glyph glyph-name="news" unicode="&#58904;" d="M671.709091 579.272727l-6.004364 0-354.909091 0c-25.704727 0-50.909091-20.840727-50.909091-46.545455l0-465.454545c0-25.704727 25.204364-46.545455 50.909091-46.545455l418.909091 0c25.704727 0 42.181818 20.840727 42.181818 46.545455L771.886545 474.731636 671.709091 579.272727zM446.068364 241.818182l-24.971636 0-45.230545 58.181818 0.384 0 0-58.181818-23.272727 0 0 93.090909 24.005818 0 46.568727-61.195636-0.744727 0L422.807273 334.909091l23.272727 0L446.08 241.818182zM539.159273 241.818182l-81.454545 0 0 93.090909 81.454545 0 0-23.272727-58.181818 0 0-11.636364 58.181818 0 0-23.272727-58.181818 0 0-11.636364 58.181818 0L539.159273 241.818182zM651.717818 241.818182l-23.261091 0-17.442909 62.976-0.244364 0L593.326545 241.818182 570.065455 241.818182l-26.274909 93.090909L564.363636 334.909091l18.036364-65.012364 0.244364 0L599.610182 334.909091l22.562909 0 16.977455-65.012364 0.232727 0L658.548364 334.909091l19.456 0L651.717818 241.818182zM741.341091 428l-87.458909 0c-23.505455 0-44.904727 16.616727-44.904727 39.517091L608.977455 544.363636c0 6.423273 5.201455 11.636364 11.636364 11.636364 6.423273 0 11.636364-5.213091 11.636364-11.636364l0-76.846545c0-10.170182 10.821818-16.244364 21.632-16.244364l87.458909 0c6.423273 0 11.636364-5.213091 11.636364-11.636364S747.764364 428 741.341091 428z"  horiz-adv-x="1024" />

    
    <glyph glyph-name="tubiao3" unicode="&#59107;" d="M437.248 359.072 84.416 359.072C73.088 359.072 64 368.224 64 379.488L64 726.944C64 738.208 73.088 747.36 84.416 747.36l352.832 0c11.264 0 20.416-9.216 20.416-20.416l0-347.456C457.664 368.224 448.512 359.072 437.248 359.072zM104.896 399.968l311.936 0L416.832 706.4 104.896 706.4 104.896 399.968zM437.248-115.04 84.416-115.04C73.088-115.04 64-105.888 64-94.624L64 252.64c0 11.392 9.088 20.48 20.416 20.48l352.832 0c11.264 0 20.416-9.152 20.416-20.48l0-347.264C457.664-105.888 448.512-115.04 437.248-115.04zM104.896-74.144l311.936 0L416.832 232.096 104.896 232.096 104.896-74.144zM905.088 359.072 552.32 359.072c-11.392 0-20.48 9.216-20.48 20.416L531.84 726.944c0 11.264 9.152 20.416 20.48 20.416l352.768 0c11.328 0 20.416-9.216 20.416-20.416l0-347.456C925.504 368.224 916.352 359.072 905.088 359.072zM572.736 399.968l311.808 0L884.544 706.4 572.736 706.4 572.736 399.968zM716.928-117.472c-112.512 0-204.032 91.584-204.032 203.904 0 112.64 91.52 204.032 204.032 204.032 112.384 0 203.904-91.456 203.904-204.032C920.832-25.952 829.312-117.472 716.928-117.472zM716.928 249.504c-89.984 0-163.072-73.28-163.072-163.136 0-89.6 73.088-162.88 163.072-162.88 89.728 0 162.944 73.28 162.944 162.88C879.872 176.224 806.656 249.504 716.928 249.504zM939.456-147.36c-4.864 0-9.984 1.728-14.08 5.504l-90.752 85.952c-8.192 7.68-8.576 20.8-0.896 28.864 7.872 8.32 20.864 8.704 28.928 0.832l90.88-85.76c8.256-7.872 8.576-20.928 0.896-29.12C950.464-145.248 945.088-147.36 939.456-147.36z"  horiz-adv-x="1024" />

    
    <glyph glyph-name="fenlei1" unicode="&#58881;" d="M930.688-211.744l-289.824 0c-51.552 0-93.312 65.568-93.312 117.12l0 264.96c0 51.52 41.76 93.312 93.312 93.312l289.824 0c51.488 0 93.312-41.792 93.312-93.312l0-288.768C1024-169.984 982.176-211.744 930.688-211.744zM976.064 166.976c0 26.304-21.344 47.616-47.616 47.616l-285.664 0c-26.272 0-47.616-21.312-47.616-47.616l0-285.664c0-26.272 21.344-47.616 47.616-47.616l285.664 0c26.272 0 47.616 21.344 47.616 47.616L976.064 166.976zM930.688 335.776l-289.824 0c-51.552 0-93.312 65.6-93.312 117.152l0 264.96c0 51.52 41.76 93.344 93.312 93.344l289.824 0C982.176 811.232 1024 769.408 1024 717.888l0-288.768C1024 377.568 982.176 335.776 930.688 335.776zM976.064 714.528c0 26.272-21.344 47.616-47.616 47.616l-285.664 0c-26.272 0-47.616-21.344-47.616-47.616l0-285.664c0-26.304 21.344-47.616 47.616-47.616l285.664 0c26.272 0 47.616 21.312 47.616 47.616L976.064 714.528zM383.136-211.744 93.344-211.744C41.76-211.744 0-146.176 0-94.624l0 264.96c0 51.52 41.76 93.312 93.344 93.312l289.792 0c51.52 0 93.344-41.792 93.344-93.312l0-288.768C476.448-169.984 434.656-211.744 383.136-211.744zM428.512 166.976c0 26.304-21.312 47.616-47.616 47.616L95.232 214.592c-26.272 0-47.616-21.312-47.616-47.616l0-285.664c0-26.272 21.344-47.616 47.616-47.616l285.664 0c26.304 0 47.616 21.344 47.616 47.616L428.512 166.976zM383.136 335.776 93.344 335.776C41.76 335.776 0 401.376 0 452.928l0 264.96c0 51.52 41.76 93.344 93.344 93.344l289.792 0c51.52 0 93.344-41.792 93.344-93.344l0-288.768C476.448 377.568 434.656 335.776 383.136 335.776zM428.512 714.528c0 26.272-21.312 47.616-47.616 47.616L95.232 762.144c-26.272 0-47.616-21.344-47.616-47.616l0-285.664c0-26.304 21.344-47.616 47.616-47.616l285.664 0c26.304 0 47.616 21.312 47.616 47.616L428.512 714.528z"  horiz-adv-x="1024" />

    
    <glyph glyph-name="gou1" unicode="&#58927;" d="M409.344-130.848c68.416 124.992 307.456 348.544 478.144 462.656l67.072 40.96c26.432 14.272 49.536 24.064 67.968 28.16-52.608 119.936-6.464 217.408 1.024 329.856l0 0c-63.424-32.448-127.424-78.272-189.12-130.496l-71.424-64.192c-205.696-194.88-369.6-435.072-369.6-435.072L273.28 333.472 0.384 200.8c115.456-41.152 292.096-187.904 408.64-331.584"  horiz-adv-x="1024" />

    
    <glyph glyph-name="gou2" unicode="&#58900;" d="M1024 649.6 376.064-71.008l-30.624 30.464 0 0L0 296.32l32.32 31.712L375.68-6.752l616 688.032L1024 649.6z"  horiz-adv-x="1024" />

    
    <glyph glyph-name="tuichu" unicode="&#58882;" d="M203.369973 356.033042l667.629248 0-148.386502-148.931984c-11.060347-11.086499-11.060347-29.096688 0-40.184211 11.031693-11.087523 28.959729-11.087523 40.019052 0l195.30292 196.011232c5.902672 5.930059 8.411922 13.762445 8.026119 21.511943 0.385802 7.750521-2.123447 15.610536-8.026119 21.511943L762.631772 601.96422c-11.060347 11.086499-28.987359 11.086499-40.019052 0-11.060347-11.086499-11.060347-29.096688 0-40.184211l148.386502-148.931984L203.369973 412.848025c-15.638806 0-28.298646-12.71458-28.298646-28.408003S187.731167 356.033042 203.369973 356.033042zM796.419657 694.660412c0 31.193443-25.292049 56.484456-56.48677 56.484456L175.071328 751.144868c-31.193698 0-56.485747-25.291013-56.485747-56.484456l0-621.321848c0-31.19242 25.292049-56.483432 56.485747-56.483432l564.861559 0c31.194721 0 56.48677 25.291013 56.48677 56.483432L796.419657 186.306452l56.485747 0 0-112.967888c0-62.385862-50.584098-112.967888-112.97354-112.967888L175.071328-39.629323c-62.388419 0-112.972517 50.582025-112.972517 112.967888L62.098811 694.660412c0 62.385862 50.584098 112.967888 112.972517 112.967888l564.861559 0c62.389442 0 112.97354-50.582025 112.97354-112.967888l0-112.967888-56.485747 0L796.42068 694.660412z"  horiz-adv-x="1024" />

    
    <glyph glyph-name="guanbi2" unicode="&#58937;" d="M512-212c-247.424 0-448 200.576-448 448 0 178.368 105.024 330.624 256 402.304l0-147.648C242.624 432.352 192 340.384 192 236c0-176.704 143.296-320 320-320s320 143.296 320 320c0 104.384-50.624 196.352-128 254.656L704 638.304c150.976-71.744 256-224 256-402.304C960-11.424 759.424-212 512-212zM576 364c0-35.328-28.672-64-64-64C476.672 300 448 328.608 448 364L448 748c0 35.328 28.672 64 64 64 35.328 0 64-28.672 64-64L576 364z"  horiz-adv-x="1024" />

    
    <glyph glyph-name="jiangjin" unicode="&#58905;" d="M511.705787 747.978894c-247.281841 0-447.742436-200.453405-447.742436-447.724091s200.461618-447.724091 447.742436-447.724091 447.742436 200.453405 447.742436 447.724091S758.986606 747.978894 511.705787 747.978894zM348.769322 643.717296c3.763874 2.682086 8.05682 3.75451 12.883953 3.224438 4.828156-0.535189 9.928524-1.608637 15.306218-3.224438 5.374624-1.611707 10.607003-3.227508 15.690997-4.843308 5.083993-1.611707 9.782185-1.87879 14.094574-0.798179 7.521609 1.6158 13.154117 4.430916 16.901618 8.452509 3.743407 4.018523 10.187431 8.983605 19.323883 14.892175 6.974117 4.293793 14.754633 5.77247 23.345641 4.431939 8.587937-1.340531 15.030937-4.155646 19.324906-8.452509 2.146984-2.677992 4.431097-4.960988 6.852339-6.852058 2.422265-1.886977 4.974495-3.632737 7.655667-5.229095 2.676055-2.145873 5.632508-4.02978 8.860148-5.641487l0.051167-0.026606c1.081679 0 2.422265 0.542352 4.018688 1.622964 3.231733 2.146896 7.525702 5.90857 12.883953 11.282974 6.445047 5.90857 12.886 10.205433 19.323883 12.883425 6.445047 2.680039 15.030937 1.870604 25.768929-2.423189 5.379741-1.614777 9.671663-3.89982 12.884976-6.852058 3.21229-2.956332 6.293591-5.771447 9.250044-8.452509 2.953383-2.676969 6.172836-4.960988 9.660406-6.852058s7.917644-2.827395 13.296362-2.806929c5.374624 0.014326 9.935687 0.820692 13.682164 2.421142 3.741361 1.596358 7.367083 3.075035 10.870004 4.430916 3.509061 1.356904 6.994584 2.293229 10.462711 2.806929 3.471197 0.514723 7.628037-0.022513 12.47052-1.622964 5.379741-2.146896 9.005464-5.228071 10.875121-9.247618 1.872727-4.022617 2.415102-8.17724 1.625077-12.471033-0.791048-4.297886-2.674009-8.589632-5.647858-12.883425-2.965663-4.29277-6.591385-7.779174-10.870004-10.460236-10.201757-6.440689-17.98739-13.022595-23.345641-19.73753-5.359274-6.714935-10.724688-13.82589-16.104429-21.331841-2.676055-3.761674-5.633531-8.055466-8.861171-12.883425-3.232757-4.827959-6.184093-9.664104-8.866288-14.507412-3.226617-5.90857-6.71521-11.542894-10.458618-16.901948L425.296318 515.664851c-3.758758 6.439666-7.521609 12.616342-11.283436 18.525935-3.232757 5.377474-6.716234 10.744715-10.462711 16.102746-3.743407 5.358031-6.966954 10.194176-9.659383 14.507412-5.378718 8.055466-11.417495 15.168468-18.116332 21.332864-6.700884 6.16849-13.277942 11.67183-19.737315 16.516162-6.975141 4.827959-11.806367 11.405771-14.503913 19.735483C338.834658 630.71619 341.248737 637.828169 348.769322 643.717296zM790.096389 129.984838c-4.825086-26.847461-14.350411-52.210106-28.575973-76.085886-14.220446-23.87578-33.143176-44.672432-56.760004-62.400189-23.622968-17.726733-51.66987-31.821753-84.15401-42.281989-32.482093-10.462283-69.389143-15.690354-110.716034-15.690354-42.41164 0-79.990006 6.03853-112.727936 18.110473-32.74407 12.079106-60.515692 27.777647-83.331238 47.099714-22.811453 19.323091-40.924715 40.935318-54.339786 64.826448-13.414047 23.89113-22.273172 47.64923-26.566117 71.26509-4.828156 26.297946-5.496403 51.534723-2.007809 75.701123 3.48757 24.166399 9.788325 46.846958 18.911473 68.046792 9.120079 21.193695 20.526317 40.653909 34.219738 58.381665 13.689328 17.726733 28.583137 33.561373 44.674262 47.512107 13.968702 12.352329 26.586584 24.02109 37.854671 35.017538 11.268086 10.992355 20.664469 21.056572 28.186077 30.194696 9.120079 10.204409 17.176898 19.86442 24.170459 28.985148l181.162296 0-0.050144-0.050142c6.437883-8.591679 14.49368-17.983583 24.166366-28.189016 8.054773-9.121751 17.98739-19.453051 29.784547-30.995945 11.803297-11.543917 25.492625-23.754007 41.075147-36.638455 12.87986-11.267625 26.169058-24.551162 39.857363-39.856753 13.691375-15.305591 25.638964-33.154098 35.841745-53.541427 10.202781-20.388353 17.31505-43.86709 21.332715-70.440305C796.125956 192.381957 795.453616 162.72552 790.096389 129.984838zM620.430386 95.287595l-74.346241 0 1.150243 39.519062 75.498531 1.152243c10.857724-0.773619 18.601399 1.358951 23.235119 6.390547 4.634744 5.030573 6.963884 11.025101 6.988444 17.993816 0 6.192026-2.514366 11.808954-7.545146 16.838503-5.028733 5.02955-12.970938 7.544837-23.830708 7.544837l-75.496485 0 0 22.081924c13.159234 12.386098 25.16106 24.394596 36.019807 36.016285 9.290978 9.29776 18.589119 18.785855 27.879073 28.474518 9.295071 9.694803 16.272259 16.473183 20.929516 20.334117 17.817514 15.491833 21.696004 29.048593 11.636492 40.669258-5.428862 6.964622-12.407073 10.440793-20.930539 10.440793-8.520397 0-16.269189-3.096525-23.235119-9.289574-3.864163-3.094478-10.443268-8.711406-19.734245-16.838503-9.297118-8.130168-18.590142-16.45681-27.885213-24.981974-10.85363-10.06217-22.858527-21.285792-36.020831-33.675984l-0.073681 0.107447-55.763263 55.764048c-7.753909 7.753591-13.182771 13.56904-16.280445 17.429974-6.194326 5.426593-14.321757 9.875928-24.385363 13.344936-10.063605 3.473101-18.589119 1.338485-25.57654-6.392594-6.19535-8.523117-7.742652-16.850783-4.646-24.977881 3.095628-8.128121 6.580128-14.519692 10.442244-19.182898l17.437852-16.280802c8.525513-9.295714 17.815468-19.370163 27.879073-30.220279 11.622165-12.393261 24.397643-25.563212 38.328481-39.517015l-1.151267-24.385387L401.953747 183.647015c-6.960814 0-12.961727-2.709715-17.992507-8.138354-5.030779-5.428639-7.545146-11.242042-7.545146-17.437138 0-6.192026 2.33221-11.621688 6.989468-16.279778 4.656234-4.66116 10.854654-6.985088 18.589119-6.985088l78.992242 0 0-40.669258-78.992242 0c-6.965931 0-12.961727-2.134617-17.99353-6.391571-5.031803-4.26821-7.544122-9.876951-7.544122-16.842597-0.772628-6.193049 1.361053-11.422144 6.391832-15.689331 5.031803-4.257977 11.424658-6.391571 19.178567-6.391571l78.998382 0 0-23.234167c0.767511-10.856255 4.249965-18.399045 10.445314-22.636556 6.19842-4.236488 13.939025-6.371104 23.233073-6.391571 9.296094-0.772596 16.839193 2.127454 22.638507 8.694009 5.803407 6.568602 8.699482 13.348006 8.699482 20.334117l0 23.234167 81.334686 0c7.760049 0 14.154951 1.747807 19.185731 5.240351 5.029756 3.495614 7.165484 9.110495 6.392856 16.84055C652.956483 87.160497 642.116156 95.287595 620.430386 95.287595z"  horiz-adv-x="1024" />

    
    <glyph glyph-name="icon" unicode="&#58894;" d="M752.896512 748.846658l-531.042705-0.001023c-7.652284 0.019443-14.988366-3.021823-20.417005-8.450463-5.432733-5.432733-8.450463-12.745279-8.455579-20.422122l0-570.645678c0-7.721869 3.065825-15.072277 8.538467-20.503986l266.476097-264.597307c11.293207-11.216459 29.504988-11.172457 40.756239 0.078795l264.542048 264.581957c5.432733 5.432733 8.451486 12.744255 8.451486 20.415982l0.023536 570.671261C781.769097 735.939697 768.864182 748.844611 752.896512 748.846658zM724.023928 161.291868l-235.753375-235.790214L250.746858 161.350197l-0.019443 529.754363 473.296513 0.001023L724.023928 161.291868zM487.37516 177.266701c54.389748 0 98.639554 44.248783 98.639554 98.639554 0 54.389748-44.249807 98.639554-98.639554 98.639554s-98.639554-44.249807-98.639554-98.639554C388.735605 221.516508 432.985412 177.266701 487.37516 177.266701zM487.37516 349.986461c40.847314 0 74.080206-33.231869 74.080206-74.080206 0-40.847314-33.232892-74.080206-74.080206-74.080206s-74.080206 33.232892-74.080206 74.080206C413.294954 316.753569 446.526823 349.986461 487.37516 349.986461z"  horiz-adv-x="1024" />

    
    <glyph glyph-name="biaoqian" unicode="&#58887;" d="M595.138512-151.930903c-26.013467 0-50.481741 10.133801-68.865437 28.53694L88.62855 314.250562c-20.117177 20.117177-30.420847 47.938825-28.254507 76.325339l19.401886 252.067946c3.710508 48.221258 41.401945 85.912695 89.623203 89.623203l252.049526 19.382443c28.819372 2.146896 56.208163-8.081049 76.343759-28.236088l437.644525-437.644525c37.97387-37.993313 37.95545-99.776448 0-137.731898l-271.431969-271.431969C645.620253-141.796078 621.150956-151.930903 595.138512-151.930903zM428.945399 713.355329c-1.50733 0-3.013637-0.056282-4.520967-0.169869L172.374906 693.803018c-29.121248-2.241041-51.893904-25.01472-54.135968-54.135968l-19.401886-252.049526c-1.299599-17.121959 4.915963-33.943067 17.065677-46.092781l437.644525-437.644525c22.227234-22.227234 60.954257-22.227234 83.181491 0l271.431969 271.431969c22.924105 22.924105 22.924105 60.238966 0 83.181491L470.517213 696.139226C459.403085 707.252331 444.635753 713.355329 428.945399 713.355329zM299.29455 435.669936c-20.663622 0-40.027645 8.005324-54.550407 22.528086s-22.528086 33.886785-22.528086 54.550407c0 20.644179 8.005324 40.027645 22.528086 54.550407 14.522762 14.522762 33.886785 22.528086 54.550407 22.528086 20.644179 0 40.027645-8.005324 54.550407-22.528086 14.522762-14.522762 22.528086-33.905204 22.528086-54.550407 0-20.663622-8.005324-40.027645-22.528086-54.550407C339.322196 443.67526 319.93873 435.669936 299.29455 435.669936zM299.29455 551.249301c-10.359952 0-20.041452-3.974521-27.275203-11.226692-7.232728-7.252171-11.226692-16.933671-11.226692-27.275203 0-10.359952 3.974521-20.041452 11.226692-27.275203 14.46648-14.484899 40.046065-14.484899 54.550407 0 7.252171 7.232728 11.226692 16.915251 11.226692 27.275203 0 10.341532-3.992941 20.023032-11.226692 27.275203C319.317583 547.25636 309.636083 551.249301 299.29455 551.249301z"  horiz-adv-x="1024" />

    
    <glyph glyph-name="biaoqian1" unicode="&#58898;" d="M599.447654-146.708971c-28.02631 0-54.374398 10.910491-74.184583 30.729885L96.002494 313.281491c-25.743314 25.743314-36.224016 62.288648-28.02631 97.761558l47.700395 206.677153c8.919137 38.85903 39.795355 69.725014 78.634942 78.634942l206.66692 47.700395c35.052331 8.090259 72.389704-2.605338 97.781-28.0171L928.020018 286.776837c19.829628-19.819394 30.739095-46.167482 30.739095-74.194816 0-28.02631-10.910491-54.374398-30.739095-74.184583L673.652703-115.979086C653.823076-135.799504 627.474988-146.708971 599.447654-146.708971zM424.612721 716.769079c-5.679349 0-11.358699-0.653893-16.882506-1.932002L201.043852 667.137705c-27.753087-6.362918-49.78794-28.39777-56.170301-56.141648l-47.700395-206.686363c-5.835915-25.343201 1.639337-51.447742 20.025079-69.832462l429.260577-429.260577c28.299533-28.299533 77.697593-28.299533 105.998149 0l254.367315 254.377548c14.150278 14.150278 21.957081 32.973996 21.957081 52.988842 0 20.025079-7.806803 38.839587-21.957081 52.999075L477.5637 694.841673C463.432865 708.981718 444.618357 716.769079 424.612721 716.769079zM329.174068 400.416014 329.174068 400.416014c-22.01541 0-42.703591 8.577353-58.278311 24.152073-32.145118 32.145118-32.145118 84.441181 0 116.586298 15.555278 15.564487 36.262902 24.13263 58.297754 24.13263 22.01541 0 42.723034-8.568143 58.278311-24.13263 15.57472-15.57472 24.162306-36.282345 24.162306-58.297754 0-22.01541-8.587586-42.723034-24.162306-58.287521C371.897102 408.993366 351.189478 400.416014 329.174068 400.416014zM329.193511 535.308237c-14.032598 0-27.206642-5.445012-37.102013-15.350616-20.453844-20.453844-20.453844-53.740972 0-74.194816 19.829628-19.84907 54.354955-19.810185 74.184583 0 9.914814 9.914814 15.379269 23.088858 15.379269 37.092803 0 14.013155-5.464455 27.187199-15.379269 37.102013C356.38071 529.863225 343.206666 535.308237 329.193511 535.308237z"  horiz-adv-x="1024" />

    
    <glyph glyph-name="querenxinmima" unicode="&#59017;" d="M512.020951 680.008839c-209.928799 0-380.050741-170.205745-380.050741-380.008839s170.163843-380.008839 380.050741-380.008839c209.803094 0 379.966937 170.205745 379.966937 380.008839S721.824045 680.008839 512.020951 680.008839zM512.020951-32.533923c-183.656273 0-332.533923 148.87765-332.533923 332.533923s148.87765 332.533923 332.533923 332.533923c183.614371 0 332.533923-148.87765 332.533923-332.533923S695.635322-32.533923 512.020951-32.533923zM674.39103 435.720435l-221.745151-221.703249L349.734676 316.970292c-9.050822 9.050822-23.716507 9.050822-32.76733 0-9.092724-9.050822-9.092724-23.758409 0-32.809232l116.445536-116.487438c0.838039-1.089451 1.298961-2.388411 2.304608-3.394058 4.651117-4.609215 10.852607-6.830019 16.92839-6.662411 6.117686-0.167608 12.319175 2.053196 17.012194 6.662411 0.963745 1.005647 1.466568 2.304608 2.220804 3.43596l235.321385 235.237581c9.008921 9.050822 9.008921 23.716507 0 32.809232C698.065635 444.771258 683.358049 444.771258 674.39103 435.720435z"  horiz-adv-x="1024" />

    
    <glyph glyph-name="gouwuche" unicode="&#59081;" d="M753.429-27.004c-43.1 0-78.042-33.971-78.042-77.377 0-43.431 34.942-78.61 78.042-78.61 43.097 0 78.041 35.18 78.041 78.61C831.47-60.974 796.526-27.004 753.429-27.004zM328.326-27.004c-43.123 0-75.671-32.76-75.671-76.168 0-43.429 32.549-78.61 75.671-78.61 43.099 0 78.041 35.182 78.041 78.61C406.367-59.763 371.425-27.004 328.326-27.004zM1022.804 282.058l-0.829 268.522c0 0-3.889 80.815-73.537 80.815L210.931 630.4l-16.262 39.637c0 0-16.453 117.963-95.727 117.963 0 0-95.75 0-95.75-116.185l80.294 0.118c0 0 98.333-565.8 98.333-582.846 0-21.383 17.165-77.377 38.405-77.377l725.369 0c21.218 0 38.404 36.649 38.404 58.009 0 21.384-17.187 58.058-38.404 58.058L273.067 127.777l-19.084 77.165 693.651 3.058C947.634 207.999 1022.804 207.098 1022.804 282.058zM330.697 321.245c0-21.36-17.187-38.689-38.405-38.689l-1.208 0c-21.217 0-38.428 17.329-38.428 38.689l0 38.689c0 21.383 17.211 38.712 38.428 38.712l1.208 0c21.218 0 38.405-17.33 38.405-38.712L330.697 321.245zM330.697 476.024c0-21.36-17.187-38.688-38.405-38.688L253.84 437.336c-21.193 0-38.404 17.329-38.404 38.688l0 38.712c0 21.36 17.211 38.689 38.404 38.689l38.452 0c21.218 0 38.405-17.329 38.405-38.689L330.697 476.024zM484.432 321.245c0-21.36-17.211-38.689-38.428-38.689l-38.452 0c-21.193 0-38.404 17.329-38.404 38.689l0 38.689c0 21.383 17.211 38.712 38.404 38.712l38.452 0c21.217 0 38.428-17.33 38.428-38.712L484.432 321.245zM484.432 476.024c0-21.36-17.211-38.688-38.428-38.688l-38.452 0c-21.193 0-38.404 17.329-38.404 38.688l0 38.712c0 21.36 17.211 38.689 38.404 38.689l38.452 0c21.217 0 38.428-17.329 38.428-38.689L484.432 476.024zM638.145 321.245c0-21.36-17.212-38.689-38.427-38.689l-38.43 0c-21.217 0-38.428 17.329-38.428 38.689l0 38.689c0 21.383 17.211 38.712 38.428 38.712l38.43 0c21.215 0 38.427-17.33 38.427-38.712L638.145 321.245zM638.145 476.024c0-21.36-17.212-38.688-38.427-38.688l-38.43 0c-21.217 0-38.428 17.329-38.428 38.688l0 38.712c0 21.36 17.211 38.689 38.428 38.689l38.43 0c21.215 0 38.427-17.329 38.427-38.689L638.145 476.024zM791.858 321.245c0-21.36-17.212-38.689-38.429-38.689l-38.428 0c-21.217 0-38.429 17.329-38.429 38.689l0 38.689c0 21.383 17.212 38.712 38.429 38.712l38.428 0c21.217 0 38.429-17.33 38.429-38.712L791.858 321.245zM791.858 476.024c0-21.36-17.212-38.688-38.429-38.688l-38.428 0c-21.217 0-38.429 17.329-38.429 38.688l0 38.712c0 21.36 17.212 38.689 38.429 38.689l38.428 0c21.217 0 38.429-17.329 38.429-38.689L791.858 476.024zM945.571 321.245c0-21.36-17.211-38.689-38.43-38.689l-38.428 0c-21.218 0-38.429 17.329-38.429 38.689l0 38.689c0 21.383 17.211 38.712 38.429 38.712l38.428 0c21.219 0 38.43-17.33 38.43-38.712L945.571 321.245zM945.571 476.024c0-21.36-17.211-38.688-38.43-38.688l-38.428 0c-21.218 0-38.429 17.329-38.429 38.688l0 38.712c0 21.36 17.211 38.689 38.429 38.689l38.428 0c21.219 0 38.43-17.329 38.43-38.689L945.571 476.024z"  horiz-adv-x="1029" />

    
    <glyph glyph-name="gongsizhanghu" unicode="&#58998;" d="M236.455 384.479c0-157.007 127.279-284.286 284.286-284.286s284.286 127.279 284.286 284.286c0 157.007-127.279 284.286-284.286 284.286-157.007 0-284.286-127.279-284.286-284.286zM362.358 426.593c0-29.447 23.872-53.319 53.319-53.319s53.319 23.872 53.319 53.319c0 29.447-23.872 53.319-53.319 53.319-29.447 0-53.319-23.872-53.319-53.319zM551.211 426.593c0-29.447 23.872-53.319 53.319-53.319s53.319 23.872 53.319 53.319c0 29.447-23.872 53.319-53.319 53.319-29.447 0-53.319-23.872-53.319-53.319zM650.232 316.555c-30.091-44.002-80.671-72.897-138.082-72.897-0.252 0-0.503 0.063-0.755 0.063-0.252 0-0.598-0.063-0.819-0.063-57.38 0-107.992 28.894-138.020 72.897-12.748 18.697-27.636 5.823-24.74-6.546 17.375-73.778 83.693-128.672 162.76-128.672 0.252 0 0.567 0.032 0.819 0.032 0.252 0 0.535-0.032 0.755-0.032 79.129 0 145.385 54.925 162.822 128.672 2.896 12.369-11.992 25.243-24.74 6.546v0zM47.604 377.743c0-39.043 31.651-70.693 70.693-70.693s70.693 31.651 70.693 70.693c0 39.043-31.651 70.693-70.693 70.693-39.043 0-70.693-31.651-70.693-70.693zM834.489 377.743c0-39.043 31.651-70.693 70.693-70.693s70.693 31.651 70.693 70.693c0 39.043-31.651 70.693-70.693 70.693-39.043 0-70.693-31.651-70.693-70.693z"  horiz-adv-x="1024" />

    
    <glyph glyph-name="iconfontclosesmall" unicode="&#58988;" d="M596.722 300.001 924.94 628.219c23.299 23.299 23.299 61.422 0 84.721s-61.422 23.299-84.721 0L512.001 384.722 183.781 712.94c-23.299 23.299-61.422 23.299-84.721 0s-23.299-61.422 0-84.721L427.28 300.001 99.06-28.219c-23.299-23.299-23.299-61.422 0-84.721s61.422-23.299 84.721 0l328.219 328.219L840.219-112.94c23.299-23.299 61.422-23.299 84.721 0s23.299 61.422 0 84.721L596.722 300.001z"  horiz-adv-x="1024" />

    
    <glyph glyph-name="jinbi" unicode="&#59055;" d="M479.403 177.696q23.552-11.264 39.936-24.576t17.408-28.672 1.024-34.816v-32.768q-1.024-12.288-8.192-24.064t-27.648-25.088q-10.24-6.144-27.648-14.848t-42.496-15.872-58.368-12.288-74.24-5.12-73.216 5.12-56.32 11.776-41.472 13.824-28.672 13.312q-23.552 11.264-37.376 23.552t-15.872 22.528q-2.048 9.216-2.56 31.232t0.512 38.4q1.024 15.36 11.776 28.16t35.328 25.088q9.216 4.096 19.456 5.12-4.096 2.048-7.68 3.584t-7.68 3.584q-23.552 11.264-37.376 24.064t-15.872 22.016q-2.048 10.24-2.56 32.256t0.512 37.376 11.776 28.16 35.328 25.088q5.12 3.072 12.288 4.096t15.36 2.048q-5.12 2.048-9.728 4.096t-9.728 4.096q-23.552 11.264-37.376 24.064t-15.872 23.040q-2.048 9.216-2.56 31.232t0.512 37.376q1.024 16.384 12.288 28.16t34.816 25.088q17.408 11.264 69.12 23.040t126.464 11.776q67.584 0 118.272-9.216t74.24-20.48 39.936-24.576 17.408-27.648q1.024-15.36 1.024-35.84v-31.744q-1.024-12.288-8.192-24.064t-27.648-25.088q-5.12-3.072-10.752-6.656t-13.824-6.656q1.024-1.024 2.048-1.024 23.552-10.24 39.936-24.064t17.408-29.184q1.024-14.336 1.024-33.792v-33.792q-1.024-12.288-8.192-23.552t-27.648-25.6q-4.096-2.048-8.704-5.12t-10.752-6.144h1.024zM85.163 465.44q-5.12-16.384 3.584-22.528t19.968-11.264q5.12-3.072 11.776-5.12t11.776-4.096q6.144-2.048 12.288-3.072l-1.024-36.864q0-11.264 8.192-14.848t17.408-3.584 15.36 1.024 7.168 12.288v31.744q7.168-1.024 22.528-2.56t28.672-2.56q5.12 0 9.728-0.512t8.704-0.512h7.168l1.024-39.936q0-11.264 7.168-13.824t15.36-2.56q20.48 1.024 23.552 2.56t3.072 12.8v39.936q6.144 1.024 12.288 1.024h12.288q6.144 0 12.288 1.024 14.336 2.048 20.48 3.072 4.096 1.024 5.12 2.048v-35.84q0-13.312 22.528-13.312 13.312 1.024 17.92 4.608t4.608 8.704v41.984l12.288 3.072q5.12 2.048 12.8 4.096t15.872 5.12q25.6 9.216 22.528 25.6-2.048 7.168-6.144 9.728t-9.216 2.56-11.776-2.048-12.8-3.072q-32.768-6.144-77.312-10.24t-85.504-4.096q-19.456 0-40.96 2.048t-41.984 5.12-37.888 6.656-28.672 7.68q-4.096 1.024-11.776 3.072t-16.384 2.56-15.36-1.024-8.704-6.656zM85.163 282.144q-7.168-13.312 2.56-21.504t20.992-13.312q5.12-3.072 11.776-4.608t11.776-3.584q6.144-2.048 12.288-3.072l-1.024-37.888q0-11.264 8.192-14.848t17.408-3.584 16.896 1.536 8.704 11.776v31.744q7.168-1.024 20.992-2.56t27.136-1.536q5.12 0 9.728-0.512t8.704-0.512h7.168v-44.032q0-9.216 5.632-10.752t17.92-1.536q24.576-2.048 24.576 12.288v40.96q6.144 1.024 13.312 2.048 6.144 1.024 12.8 1.024t12.8 1.024q14.336 2.048 20.48 3.072 4.096 1.024 5.12 1.024v-35.84q0-14.336 22.528-12.288h1.024q5.12 1.024 13.312 3.072 8.192 4.096 8.192 12.288v39.936l12.288 3.072q5.12 2.048 12.8 3.584t15.872 4.608q24.576 10.24 22.528 25.6-2.048 11.264-14.848 10.752t-25.088-2.56q-16.384-3.072-32.256-6.144t-33.792-5.12-39.424-3.584-49.152-1.536q-60.416 0-97.792 7.68t-59.904 14.848q-4.096 1.024-11.776 3.072t-15.872 2.56-14.848-0.512-9.728-6.144zM471.211 61.984q24.576 8.192 22.528 25.6-2.048 11.264-14.848 10.24t-25.088-3.072q-32.768-5.12-70.144-10.24t-92.672-3.072q-19.456 0-41.472 1.536t-43.008 3.584-38.4 5.632-28.672 6.656q-4.096 1.024-11.264 3.072t-14.848 3.584-14.336 0.512-9.728-5.12q-7.168-13.312 2.56-21.504t20.992-13.312q5.12-3.072 11.776-4.608t11.776-3.584q6.144-2.048 12.288-3.072v-38.912q0-11.264 7.68-14.336t16.896-3.072 16.896-0.512 7.68 10.752q0 2.048 0.512 8.192t0.512 12.288v14.336q7.168-1.024 20.992-2.56t27.136-1.536q5.12-1.024 10.24-1.024h15.36l1.024-44.032q1.024-8.192 7.68-10.24t14.848-3.072q11.264 0 17.92 1.536t6.656 12.8v41.984h13.312q6.144 0 12.8 0.512t12.8 1.536q12.288 0 20.48 2.048 4.096 1.024 5.12 2.048v-35.84q0-14.336 22.528-12.288 13.312 0 17.92 3.584t4.608 8.704v43.008l12.288 3.072q5.12 2.048 12.8 3.584t15.872 4.608zM972.971 258.592q23.552-10.24 40.448-24.064t17.92-28.16q1.024-15.36 1.024-35.328t-1.024-32.256-7.68-24.064-27.136-25.088q-20.48-14.336-71.168-31.232t-132.608-16.896q-40.96 0-72.704 4.608t-55.808 11.264-41.472 14.336-28.672 12.8q-23.552 11.264-37.888 24.064t-16.384 23.040q-2.048 9.216-2.048 31.744v36.864q1.024 16.384 11.776 29.184t35.328 24.064q12.288 6.144 27.648 6.144-11.264 4.096-18.432 9.216-23.552 11.264-37.888 24.064t-16.384 22.016q-2.048 10.24-2.048 32.768v36.864q1.024 15.36 12.288 27.136t34.816 26.112q18.432 10.24 69.632 22.528t125.952 12.288q67.584 0 118.272-9.216t74.24-20.48 40.448-24.576 17.92-28.672q1.024-14.336 1.024-34.304t-1.024-33.28q-1.024-12.288-7.68-23.552t-27.136-25.6q-5.12-3.072-10.752-6.144t-13.824-7.168zM581.803 363.040q-5.12-11.264 4.096-18.944t20.48-12.8q5.12-3.072 11.776-4.608t11.776-3.584q6.144-2.048 12.288-3.072v-37.888q0-11.264 7.68-14.848t16.896-3.584q10.24 0 17.92 1.536t7.68 11.776v31.744q7.168-1.024 18.944-3.072t26.112-4.096q3.072 0 7.68-0.512t9.728-0.512q5.12-1.024 10.24-1.024v-37.888q0-8.192 8.704-11.776t16.896-2.56q11.264 0 17.408 2.048t6.144 11.264v39.936q7.168 0 14.336 1.024 6.144 1.024 12.8 1.536t12.8 1.536q12.288 2.048 17.408 3.072 4.096 1.024 7.168 1.024v-35.84q0-8.192 6.144-10.24t17.408-2.048 16.384 3.584 5.12 8.704v43.008l12.288 3.072q5.12 2.048 12.8 3.584t15.872 4.608q24.576 10.24 22.528 25.6-2.048 11.264-14.848 11.264t-25.088-3.072q-8.192-3.072-27.136-5.632t-42.496-5.12-48.128-4.096-45.056-1.536q-19.456 0-41.472 2.048t-42.496 5.12-37.888 6.656-28.672 6.656q-4.096 1.024-11.264 3.072t-15.36 2.56-15.36-0.512-10.24-7.168zM964.779 143.904q24.576 8.192 22.528 25.6-2.048 10.24-14.848 9.728t-25.088-2.56q-32.768-6.144-73.728-11.776t-89.088-5.632q-50.176 0-90.112 8.192t-62.464 16.384q-3.072 1.024-10.24 2.56t-14.848 2.56-14.336-0.512-9.728-6.656q-7.168-13.312 2.56-20.992t20.992-12.8q5.12-3.072 11.776-5.12t11.776-4.096q6.144-2.048 12.288-3.072v-36.864q0-11.264 7.68-14.848t16.896-3.584q10.24 0 16.384 0.512t7.168 11.776v32.768q7.168-1.024 22.528-2.56t28.672-2.56h20.48v-44.032q1.024-9.216 7.68-10.752t14.848-1.536q11.264-1.024 20.992 1.024t9.728 13.312v37.888q6.144 1.024 13.312 2.048 6.144 1.024 12.8 1.024t12.8 1.024q13.312 1.024 19.456 3.072 4.096 1.024 5.12 2.048v-36.864q0-8.192 6.144-10.24t17.408-2.048q13.312 1.024 17.408 4.608t4.096 8.704v43.008q5.12 0 12.288 2.048 5.12 2.048 12.8 4.096t15.872 5.12z"  horiz-adv-x="1054" />

    
    <glyph glyph-name="iconjia" unicode="&#59056;" d="M902.947 228.973h-332.293v-332.346c0-32.387-26.267-58.628-58.655-58.628-32.387 0-58.654 26.241-58.654 58.628v332.346h-332.295c-32.414 0-58.654 26.241-58.654 58.628 0 32.375 26.243 58.628 58.654 58.628h332.293v332.346c0 32.375 26.267 58.628 58.654 58.628 32.388 0 58.655-26.254 58.655-58.628v-332.347h332.293c32.414 0 58.655-26.252 58.655-58.626-0.001-32.387-26.241-58.626-58.655-58.626z"  horiz-adv-x="1024" />

    
    <glyph glyph-name="xinwen" unicode="&#59080;" d="M522.166 770.207c-266.375 0-482.22-215.883-482.22-482.188s215.883-482.188 482.22-482.188c266.237 0 482.188 215.883 482.188 482.188s-215.916 482.188-482.188 482.188zM448.319 62.833c-37.027-33.718-93.82-31.754-126.817 4.444-32.997 36.301-29.724 92.992 7.299 126.782 37.058 33.718 93.82 31.754 126.851-4.478 32.997-36.198 29.724-92.959-7.338-126.747zM597.319 78.473c-7.511 61.442-32.927 120.925-77.392 169.697-46.909 51.49-107.596 82.972-171.867 94.753v71.020c83.797-12.192 163.598-51.181 224.426-117.894 56.762-62.373 88.275-138.835 95.715-217.568h-70.882zM773.9 78.473c-7.232 104.532-47.358 206.789-122.613 289.38-81.662 89.583-190.157 140.042-303.229 152.374v70.707c132.533-12.261 260.245-70.399 355.821-175.206 87.551-96.061 133.395-215.47 140.423-337.255h-70.399z"  horiz-adv-x="1024" />

    
    <glyph glyph-name="dingwei" unicode="&#58982;" d="M1019.263696 780.782746c0.017418 0.089411 0.027868 0.179983 0.045286 0.269395 0.126569 0.682776 0.222947 1.366713 0.296102 2.052972 0.016257 0.155599 0.030191 0.311197 0.044125 0.465635 0.062704 0.71645 0.099862 1.431739 0.103345 2.148189 0 0.053414 0.003484 0.10799 0.003484 0.162566-0.001161 0.798894-0.03948 1.595466-0.114957 2.387393-0.008128 0.095217-0.023224 0.188112-0.032513 0.283329-0.070832 0.670003-0.16721 1.336522-0.287973 1.998397-0.031352 0.173016-0.063865 0.344871-0.098701 0.517888-0.145148 0.714128-0.314681 1.423611-0.517888 2.122643-0.011612 0.038319-0.01974 0.077799-0.030191 0.116118-0.218302 0.73619-0.478408 1.459607-0.760575 2.174896-0.06851 0.171855-0.142826 0.341388-0.21598 0.512082-0.247332 0.586398-0.514404 1.164667-0.8047 1.733647-0.069671 0.134697-0.133536 0.271717-0.205529 0.406414-0.77567 1.457285-1.69765 2.84606-2.752005 4.152392-0.030191 0.035997-0.05922 0.073155-0.089411 0.109151-0.577108 0.705999-1.180923 1.396904-1.838153 2.049489-1.227371 1.214598-2.561571 2.275919-3.966602 3.206027-0.025546 0.017418-0.051092 0.034836-0.076638 0.052253-0.709483 0.465635-1.435223 0.899917-2.183025 1.291236-0.024385 0.013934-0.052253 0.024385-0.077799 0.038319-0.656069 0.341388-1.327233 0.649102-2.007686 0.93243-0.169533 0.070832-0.340227 0.140503-0.510921 0.207852-0.632845 0.248493-1.273818 0.474924-1.92292 0.673486-0.090572 0.027868-0.178822 0.061543-0.270556 0.08825-0.732707 0.214819-1.474703 0.39248-2.221344 0.543434-0.169533 0.033674-0.340227 0.05922-0.509759 0.090572-0.603815 0.109151-1.208792 0.19624-1.818413 0.263589-0.181145 0.01974-0.362289 0.041803-0.543434 0.056898-1.516505 0.133536-3.044623 0.134697-4.57274 0-0.190434-0.017418-0.379707-0.040641-0.570141-0.061543-0.577108-0.063865-1.151894-0.146309-1.72668-0.249654-0.212497-0.037158-0.424993-0.071993-0.63749-0.114957-0.712967-0.145148-1.423611-0.31352-2.126127-0.52021-0.218302-0.063865-0.433121-0.146309-0.650263-0.217141-0.383191-0.123085-0.767542-0.240365-1.146088-0.383191L21.244012 450.719859c-9.899088-3.683274-16.601439-12.984352-16.990435-23.537187-0.387835-10.553996 5.610838-20.304452 15.210341-24.722755l404.836129-186.074989 194.513309-413.37431c4.320763-9.195411 13.564944-15.010617 23.647499-15.010617 0.409898 0 0.816312 0 1.227371 0.018579 10.563285 0.488858 19.79237 7.305005 23.378105 17.237767l351.141849 971.707268c0.120763 0.335582 0.218302 0.675809 0.325131 1.014874 0.061543 0.192756 0.128891 0.383191 0.184628 0.577108C1018.93392 779.292948 1019.115064 780.036106 1019.263696 780.782746zM890.037921 719.258607l-451.767677-451.735164L98.451094 423.717701 890.037921 719.258607zM639.294308-117.682881 475.385148 230.655871l453.757945 453.747495L639.294308-117.682881z"  horiz-adv-x="1024" />

    
    <glyph glyph-name="eye" unicode="&#59039;" d="M904.367 322.167c-132.204 287.979-389.87 278.297-389.87 278.297-278.718 0-395.342-280.404-395.342-280.404-15.996-32.061-1.264-65.258-1.264-65.258 144.835-299.769 396.606-278.996 396.606-278.996 296.122 15.719 389.87 279.418 389.87 279.418 11.788 25.683 9.285 45.472 0 66.944zM854.862 259.962c0 0-73.36-225.556-340.611-239.003 0 0-215.974-17.765-346.684 238.647 0 0-13.301 28.392 1.14 55.816 0 0 94.006 239.847 345.544 239.847 0 0 221.296 8.283 340.611-238.048 8.381-18.364 10.639-35.291 0-57.259zM511.245 478.113c-105.123 0-190.348-85.218-190.348-190.342 0-105.13 85.225-190.348 190.348-190.348 105.124 0 190.349 85.218 190.349 190.348 0 105.118-85.225 190.342-190.349 190.342zM511.244 142.771c-80.079 0-144.999 64.911-144.999 145.001 0 80.079 64.921 144.991 144.999 144.991s145.001-64.911 145.001-144.991c0.001-80.090-64.922-145.001-145.001-145.001zM511.245 353.335c-36.211 0-65.567-29.355-65.567-65.566 0-36.214 29.357-65.567 65.567-65.567 36.212 0 65.568 29.355 65.568 65.567 0 36.21-29.357 65.566-65.568 65.566zM511.245 267.632c-11.121 0-20.137 9.014-20.137 20.137 0 11.121 9.015 20.136 20.137 20.136s20.137-9.014 20.137-20.136c0.001-11.122-9.015-20.137-20.137-20.137z"  horiz-adv-x="1024" />

    
    <glyph glyph-name="tuichu1" unicode="&#58901;" d="M702.892143-107.02311 126.080022-107.02311c-38.588877 0-69.983911 31.390941-69.983911 69.974701L56.096111 636.997244c0 38.58683 31.395034 69.979818 69.983911 69.979818l572.842717 0c12.117992 0.010233 21.977547 9.93221 21.977547 22.11774 0 10.615779-7.699356 19.859303-18.009166 21.75549L126.080022 750.850292c-62.781882 0-113.858164-51.074236-113.858164-113.853048l0-674.045653c0-62.775742 51.076282-113.847931 113.858164-113.847931l572.824297 0c12.129248 0 21.995967 9.923 21.995967 22.119787C720.900286-118.162822 713.20093-108.919297 702.892143-107.02311zM1007.177358 317.651009 872.419188 452.899342l-0.01228-0.013303-22.657023 22.737864-25.418926 25.447579c-4.142343 4.146437-9.656941 6.430456-15.527648 6.430456-5.906523 0-11.470239-2.307555-15.664771-6.497994-7.967462-7.956206-8.742105-20.439518-1.871627-29.197996l39.035038-39.176254 0.011256 0.01228 109.671819-110.070908L505.287623 322.571065c-12.128225 0-21.994943-9.921977-21.994943-22.11774 0-12.19474 9.866718-22.116717 21.994943-22.116717l434.698426 0-99.535971-99.901291-6.311753-6.204305-46.472428-46.641273c-4.584412-9.120728-3.160993-19.650549 3.687996-26.50977 4.082992-4.089132 9.620102-6.341429 15.589047-6.341429 6.562463 0 12.822027 2.6432 17.629519 7.441483l12.205996 12.1886 33.480532 33.603329 6.314823 6.205329 130.599454 131.073244c4.312212 4.332678 6.508227 10.288321 6.185886 16.768919l-0.021489 0.432859 0.021489 0.432859C1013.683539 307.388271 1011.491617 313.337773 1007.177358 317.651009z"  horiz-adv-x="1024" />

    
    <glyph glyph-name="xiangyou" unicode="&#59349;" d="M714.100927 299.834218c0.188295 0.251743 0.374544 0.504509 0.552606 0.761369 0.130988 0.188295 0.255836 0.378638 0.381708 0.567957 0.117685 0.179085 0.236393 0.357147 0.351007 0.537256 0.170899 0.27221 0.334634 0.54749 0.496322 0.823793 0.057307 0.100288 0.116661 0.198529 0.173969 0.298817 0.198529 0.352031 0.388871 0.707131 0.573073 1.066326 0.014327 0.02763 0.02763 0.055261 0.041957 0.082891 1.457243 2.87253 2.381324 5.927215 2.788615 9.029997 0.00307 0.017397 0.005117 0.034794 0.007163 0.052191 0.051167 0.396035 0.094148 0.792069 0.128941 1.19015 0.008187 0.089031 0.01535 0.178062 0.02149 0.267093 0.02456 0.32133 0.044004 0.642661 0.058331 0.965014 0.008187 0.171922 0.014327 0.343844 0.01842 0.516789 0.00614 0.237416 0.00921 0.474832 0.00921 0.712248 0 0.257883-0.00307 0.515766-0.00921 0.773649-0.005117 0.152478-0.010233 0.30598-0.017397 0.458459-0.014327 0.339751-0.03377 0.679501-0.061401 1.019252-0.00614 0.071634-0.01228 0.143268-0.01842 0.214902-0.30291 3.538727-1.273041 7.040614-2.929837 10.306108-0.010233 0.019444-0.020467 0.038887-0.029677 0.058331-0.187272 0.365334-0.380684 0.728622-0.58433 1.087816-0.053214 0.094148-0.108475 0.187272-0.162712 0.280397-0.164759 0.282443-0.332587 0.563863-0.507579 0.842213-0.108475 0.173969-0.224113 0.344867-0.336681 0.516789-0.130988 0.196482-0.25993 0.393988-0.396035 0.588423-0.174992 0.251743-0.357147 0.498369-0.540326 0.744995-0.085961 0.115638-0.169875 0.231276-0.257883 0.345891-0.238439 0.310074-0.487112 0.61503-0.739878 0.916917-0.034794 0.041957-0.066517 0.084938-0.103358 0.127918l-0.126895 0.150432c-0.049121 0.057307-0.096194 0.114615-0.146338 0.171922L385.206012 722.355996c-10.079949 11.90662-27.94039 13.394563-39.84701 3.314615-11.94039-10.113719-13.428334-27.939367-3.315638-39.845987L654.389767 316.720435 342.043364-52.384778c-10.112696-11.90662-8.624752-29.765014 3.315638-39.844963 5.310138-4.498625 11.804285-6.697793 18.266709-6.697793 8.015862 0 15.998977 3.415926 21.580301 10.011385l327.527726 387.045475c0.053214 0.061401 0.104381 0.123825 0.156572 0.186249l0.117685 0.139175c0.032747 0.038887 0.063447 0.078798 0.096194 0.117685 0.255836 0.30598 0.506556 0.61503 0.748065 0.929197C713.937192 299.612152 714.01906 299.723697 714.100927 299.834218z"  horiz-adv-x="1024" />

    
    <glyph glyph-name="top" unicode="&#58959;" d="M267.374048 57.527596l493.674633 0L761.048681 399.308797l98.089016 0L513.053494 745.522959 167.031712 399.308797l100.342336 0L267.374048 57.527596zM256.63752-140.068737l524.529361 0 0 98.734722L256.63752-41.334016 256.63752-140.068737z"  horiz-adv-x="1024" />

    
    <glyph glyph-name="liulan" unicode="&#58972;" d="M511.022743-48.281241c-233.552244 0-465.349517 290.789852-465.349517 349.015975 0 58.33664 232.81444 349.010859 465.349517 349.010859 231.79625 0 465.349517-290.816458 465.349517-349.010859C976.37226 242.875978 743.954863-48.281241 511.022743-48.281241L511.022743-48.281241zM511.022743 591.574728c-203.447599 0-407.180699-242.23295-407.180699-290.839994 0-48.516993 202.822358-290.847158 407.180699-290.847158 203.819059 0 407.179676 242.631016 407.179676 290.847158C918.201395 349.229215 713.843054 591.574728 511.022743 591.574728L511.022743 591.574728zM511.022743 155.308597c-80.295767 0-145.421021 65.11502-145.421021 145.426137 0 80.320327 65.125253 145.421021 145.421021 145.421021 80.320327 0 145.421021-65.100694 145.421021-145.421021C656.443763 220.423617 591.348186 155.308597 511.022743 155.308597L511.022743 155.308597zM511.022743 387.98489c-48.200792 0-87.252203-39.055504-87.252203-87.25118 0-48.186466 39.051411-87.25732 87.252203-87.25732 48.200792 0 87.25118 39.070854 87.25118 87.25732C598.272899 348.929386 559.222511 387.98489 511.022743 387.98489L511.022743 387.98489zM511.022743 387.98489"  horiz-adv-x="1024" />

    
    <glyph glyph-name="tuichu2" unicode="&#58918;" d="M730.475362 120.409762c-14.130835 0-25.582655-11.452843-25.582655-25.582655l0-171.915441-572.028165 0 0 786.922467 572.028165 0 0-168.845523c0-14.128789 11.45182-25.582655 25.582655-25.582655 14.129812 0 25.582655 11.453866 25.582655 25.582655L756.058017 720.913469c0 22.103414-17.98256 40.085974-40.086997 40.085974L121.785206 760.999442c-22.103414 0-40.085974-17.98256-40.085974-40.085974l0-809.081139c0-22.103414 17.98256-40.085974 40.085974-40.085974l594.185814 0c22.104437 0 40.086997 17.98256 40.086997 40.085974L756.058017 94.827107C756.058017 108.956919 744.605174 120.409762 730.475362 120.409762zM928.535253 299.563048c0.058328 0.064468 0.11154 0.130983 0.169869 0.195451 0.218988 0.24764 0.435928 0.496304 0.644683 0.751107 0.113587 0.13917 0.221034 0.280386 0.330528 0.420579 0.146333 0.186242 0.293689 0.370437 0.434905 0.560772 0.127913 0.171915 0.24764 0.346901 0.370437 0.521886 0.115634 0.164752 0.234337 0.328481 0.345877 0.496304 0.125867 0.187265 0.24457 0.378623 0.364297 0.567935 0.103354 0.162706 0.205685 0.323365 0.304945 0.488117 0.11461 0.190335 0.223081 0.38374 0.331551 0.576121 0.097214 0.171915 0.195451 0.343831 0.289596 0.518816 0.097214 0.182149 0.189312 0.366344 0.280386 0.549515 0.098237 0.193405 0.195451 0.38681 0.288572 0.583285 0.077771 0.164752 0.150426 0.330528 0.225127 0.497327 0.099261 0.221034 0.196475 0.443092 0.289596 0.667196 0.059352 0.14224 0.112564 0.286526 0.168846 0.429789 0.099261 0.251733 0.195451 0.503467 0.285502 0.75827 0.042979 0.119727 0.081864 0.239454 0.121773 0.35918 0.095167 0.279363 0.187265 0.559748 0.273223 0.844228 0.028653 0.099261 0.056282 0.199545 0.084934 0.298805 0.085958 0.301875 0.169869 0.604774 0.245593 0.911766 0.021489 0.086981 0.039909 0.173962 0.060375 0.260943 0.074701 0.317225 0.147356 0.635473 0.209778 0.956791 0.016373 0.081864 0.027629 0.164752 0.044002 0.24764 0.060375 0.322341 0.116657 0.64673 0.163729 0.974188 0.014326 0.092098 0.022513 0.184195 0.034792 0.276293 0.042979 0.317225 0.083911 0.63445 0.11461 0.955768 0.011256 0.10847 0.016373 0.218988 0.024559 0.327458 0.024559 0.304945 0.051165 0.608867 0.065492 0.916882 0.005117 0.115634 0.004093 0.231267 0.008186 0.345877 0.011256 0.296759 0.022513 0.592494 0.022513 0.8913 0 0.292666-0.01228 0.582261-0.021489 0.87288-0.004093 0.121773-0.00307 0.24457-0.00921 0.366344-0.01535 0.299829-0.039909 0.597611-0.064468 0.895393-0.00921 0.116657-0.01535 0.234337-0.025583 0.350994-0.030699 0.314155-0.070608 0.62524-0.112564 0.936325-0.013303 0.098237-0.022513 0.196475-0.036839 0.294712-0.047072 0.320295-0.103354 0.63752-0.160659 0.954745-0.017396 0.089028-0.030699 0.179079-0.048095 0.26913-0.062422 0.313132-0.132006 0.623193-0.203638 0.932232-0.022513 0.096191-0.042979 0.192382-0.066515 0.287549-0.072655 0.296759-0.154519 0.590448-0.237407 0.883113-0.031722 0.109494-0.061398 0.220011-0.094144 0.330528-0.081864 0.272199-0.170892 0.541329-0.261966 0.810459-0.044002 0.132006-0.086981 0.264013-0.13303 0.394996-0.086981 0.242524-0.179079 0.481977-0.273223 0.721431-0.060375 0.155543-0.119727 0.312108-0.184195 0.466628-0.086981 0.211824-0.180102 0.419556-0.273223 0.62831-0.079818 0.180102-0.158612 0.360204-0.242524 0.538259-0.085958 0.181125-0.176009 0.35918-0.26606 0.537236-0.100284 0.199545-0.199545 0.398066-0.304945 0.595564-0.084934 0.158612-0.174985 0.315178-0.26299 0.471744-0.11768 0.208754-0.234337 0.417509-0.35918 0.623193-0.088004 0.146333-0.181125 0.289596-0.272199 0.433882-0.130983 0.208754-0.260943 0.416486-0.399089 0.62217-0.097214 0.145309-0.199545 0.287549-0.299829 0.429789-0.138146 0.196475-0.274246 0.394996-0.417509 0.588401-0.119727 0.160659-0.24457 0.317225-0.367367 0.473791-0.132006 0.169869-0.260943 0.339738-0.398066 0.506537-0.173962 0.210801-0.354064 0.415462-0.533143 0.621147-0.095167 0.107447-0.185218 0.218988-0.281409 0.325411-0.292666 0.322341-0.591471 0.638543-0.900509 0.945535L781.735839 480.709735c-9.990538 9.990538-26.187429 9.990538-36.178991 0-9.990538-9.990538-9.990538-26.188452 0-36.178991l102.234429-102.234429L465.439056 342.296315c-14.129812 0-25.582655-11.453866-25.582655-25.582655 0-14.129812 11.452843-25.582655 25.582655-25.582655l382.352221 0-102.234429-102.234429c-9.990538-9.989515-9.990538-26.187429 0-36.177967 4.995781-4.996804 11.542894-7.492648 18.09103-7.492648 6.545066 0 13.095249 2.496867 18.090007 7.492648l145.867182 145.867182C927.923316 298.903016 928.232354 299.22945 928.535253 299.563048z"  horiz-adv-x="1024" />

    
    <glyph glyph-name="fenlei2" unicode="&#58991;" d="M112.470561 655.439268c31.342846 4.091178 58.774615-19.575848 58.988486-50.846038 0.213871-31.571043-25.767873-52.700269-51.870368-52.884464-29.998221-0.213871-51.233871 23.2444-52.879348 48.812729C64.869427 629.079924 84.163865 651.751273 112.470561 655.439268L112.470561 655.439268zM250.779603 630.016249 955.557188 630.016249l0-51.865251L249.765507 578.150998l0 48.812729C249.678526 628.409658 249.595638 629.84638 250.779603 630.016249L250.779603 630.016249zM111.455441 341.190121c12.787234 1.868557 28.271904-1.689479 36.613896-7.119141 11.272741-7.342222 23.355941-25.990954 23.38971-43.726897 0.063445-33.862225-27.592428-52.718689-51.870368-52.884464-30.003338-0.203638-51.272757 23.807219-52.879348 48.812729C64.792679 316.044418 85.250616 337.367049 111.455441 341.190121L111.455441 341.190121zM250.779603 315.767102 955.557188 315.767102l0-51.865251L249.765507 263.901851l0 48.812729C249.678526 314.156418 249.595638 315.597233 250.779603 315.767102L250.779603 315.767102zM113.488751 53.383206c31.784914 3.411703 57.765635-20.939915 57.970296-50.851155 0.224104-33.249265-27.320229-53.994752-54.92289-52.879348-29.684066 1.194198-50.030463 25.913183-49.831942 52.879348C66.927295 31.745397 86.667895 50.501576 113.488751 53.383206L113.488751 53.383206zM250.779603 27.960187 955.557188 27.960187l0-51.870368L249.765507-23.910181l0 48.817846C249.678526 26.349503 249.595638 27.790318 250.779603 27.960187L250.779603 27.960187zM250.779603 27.960187"  horiz-adv-x="1024" />

    
    <glyph glyph-name="pricetag" unicode="&#58980;" d="M916.465695 688.93143 615.366843 737.921345 0 383.044345l301.106849-520.963691L916.461697 216.957654l107.538303 285.574583L916.465695 688.93143zM892.564518 497.752002c-4.780235-17.525531-14.936486-30.866606-30.460756-40.027224-15.536265-9.160618-32.062165-11.35181-49.595692-6.571574-17.525531 4.782235-30.864607 14.938486-40.025225 30.468753-9.164617 15.532266-11.35181 32.062165-6.571574 49.587695s14.936486 30.866606 30.468753 40.027224c15.530267 9.160618 32.062165 11.35181 49.587695 6.571574 17.525531-4.780235 30.866606-14.936486 40.027224-30.468753C895.157561 531.805431 897.348752 515.277532 892.564518 497.752002z"  horiz-adv-x="1025" />

    
    <glyph glyph-name="biaoqian3" unicode="&#58941;" d="M898.771369 533.849002 869.105722 523.818555 923.482167 363.137992 457.020316-103.336138 108.440269 245.241862 574.901097 711.718039 748.578672 652.938308 758.610142 682.602931 566.521243 747.62176 64.156694 245.241862 457.020316-147.62176 959.384865 354.727439ZM668.056754 557.505795c-27.052123 0-52.464909-10.535961-71.593572-29.650297-39.466873-39.46585-39.466873-103.675244 0-143.141094 19.128663-19.129686 44.541449-29.650297 71.576175-29.650297s52.449559 10.520611 71.579245 29.650297c19.114336 19.113313 29.649274 44.543496 29.649274 71.578222 0 21.744233-6.91141 42.35669-19.510356 59.573817L950.088128 716.167375c6.118348 6.100952 6.118348 16.024975 0 22.141276-6.116301 6.116301-16.025998 6.116301-22.1423 0L727.615221 538.008742C710.41242 550.608711 689.785637 557.505795 668.056754 557.505795zM717.47835 406.85568c-13.211906-13.211906-30.765701-20.475334-49.438992-20.475334-18.670222 0-36.222993 7.263427-49.435922 20.475334-27.250644 27.26497-27.250644 71.608921 0 98.858542 13.211906 13.211906 30.764678 20.47431 49.452295 20.47431 18.670222 0 36.224016-7.263427 49.421596-20.458961 13.195533-13.196557 20.47431-30.751375 20.47431-49.436946S730.67286 420.052237 717.47835 406.85568z"  horiz-adv-x="1024" />

    
    <glyph glyph-name="xiangyou1" unicode="&#58949;" d="M324.589145-160.868459c-4.263094 0-8.526187 1.670036-11.722996 4.978385-6.250354 6.473435-6.060019 16.780175 0.413416 23.032576l443.031209 427.172009L313.280588 721.487543c-6.473435 6.243191-6.664793 16.549931-0.413416 23.031553 6.251378 6.473435 16.558118 6.656607 23.031553 0.413416L803.234479 294.314511 335.898725-156.30349C332.732615-159.340663 328.66088-160.868459 324.589145-160.868459z"  horiz-adv-x="1024" />

    
    <glyph glyph-name="fenlei4" unicode="&#58938;" d="M952.65508 741.904549 69.473269 741.904549c-38.34533 0-69.451792-31.108508-69.451792-69.479421l0-0.333598c0-38.373982 31.106462-69.482491 69.451792-69.482491l883.181811 0c38.34533 0 69.453838 31.108508 69.453838 69.482491l0 0.333598C1022.108919 710.79604 991.00041 741.904549 952.65508 741.904549zM952.2959 371.929216 69.834497 371.929216c-38.567387 0-69.814042-31.275307-69.814042-69.813019l0-0.554632c0-38.538735 31.245631-69.814042 69.814042-69.814042l882.461403 0c38.566364 0 69.813019 31.275307 69.813019 69.814042l0 0.554632C1022.108919 340.653909 990.862264 371.929216 952.2959 371.929216zM952.65508 1.0677 69.473269 1.0677c-38.34533 0-69.451792-31.108508-69.451792-69.482491l0-0.329505c0-38.373982 31.106462-69.482491 69.451792-69.482491l883.181811 0c38.34533 0 69.453838 31.108508 69.453838 69.482491l0 0.329505C1022.108919-30.041832 991.00041 1.0677 952.65508 1.0677z"  horiz-adv-x="1024" />

    
    <glyph glyph-name="xiajiantou" unicode="&#58915;" d="M776.793212 464.459313 247.206788 464.459313l264.793212-330.989899L776.793212 464.459313zM776.793212 464.459313"  horiz-adv-x="1024" />

    
    <glyph glyph-name="svg26" unicode="&#59455;" d="M660.192 212.32l-89.984 89.984 90.112 90.112c14.208 14.208 14.176 37.248 0 51.456-14.208 14.208-37.184 14.24-51.456 0l-90.112-90.112L428.8 443.744c-14.208 14.208-37.312 14.176-51.488 0-14.208-14.208-14.24-37.248 0-51.488l89.984-89.984-90.112-90.112c-14.176-14.176-14.24-37.28-0.032-51.488 14.176-14.176 37.248-14.208 51.488 0.032l90.048 90.048 89.984-89.984c14.144-14.144 37.248-14.24 51.52 0.032C674.368 175.04 674.4 198.08 660.192 212.32L660.192 212.32 660.192 212.32zM840.128 624.16c-177.216 177.216-465.696 177.28-642.976 0-177.28-177.28-177.216-465.76 0-642.976 177.28-177.28 465.696-177.344 643.008-0.032C1017.44 158.432 1017.44 446.848 840.128 624.16L840.128 624.16 840.128 624.16zM237.376 21.376C82.24 176.512 82.272 428.832 237.344 583.936c155.168 155.168 407.456 155.136 562.592 0.032 155.136-155.136 155.168-407.456 0-562.624C644.896-133.76 392.48-133.76 237.376 21.376L237.376 21.376 237.376 21.376zM237.376 21.376"  horiz-adv-x="1024" />

    
    <glyph glyph-name="icon93" unicode="&#58942;" d="M895.872 158.24l0 618.816-895.872 0 0-856.192 682.752 0c28.672-57.856 90.368-97.92 161.856-97.92 99.008 0 179.392 76.672 179.392 171.328C1024 71.712 969.92 137.184 895.872 158.24L895.872 158.24zM71.616 708.512l752.704 0 0-205.44-73.792 0c-5.248 38.656-26.688 67.776-52.48 67.776-25.856 0-47.488-29.056-52.544-67.776l-253.312 0c-5.248 38.656-26.688 67.776-52.544 67.776s-47.488-29.056-52.544-67.776l-38.4 0c-5.376 38.336-26.752 67.008-52.544 67.008-25.6 0-46.912-28.672-52.352-67.008l-72.192 0L71.616 708.512 71.616 708.512zM71.616 468.896l71.872 0c4.736-39.808 26.496-70.016 52.736-70.016 26.496 0 48.256 30.208 52.928 70.016l37.824 0c4.864-39.488 26.496-69.312 52.736-69.312 26.048 0 47.936 29.824 52.736 69.312l252.992 0c4.8-39.488 26.432-69.312 52.736-69.312 26.24 0 47.872 29.824 52.736 69.312l73.344 0 0-239.808-74.176 0c-5.056 39.04-26.688 68.48-52.736 68.48s-47.68-29.44-52.736-68.48l-40.128 0c-4.672 39.744-26.496 70.016-52.736 70.016-26.368 0-48.064-30.272-52.736-70.016l-35.84 0c-5.12 38.784-26.752 67.776-52.544 67.776-25.856 0-47.424-28.928-52.608-67.776l-286.4 0L71.616 468.896 71.616 468.896zM665.408-5.728c0-1.664 0.192-3.328 0.192-4.928l-593.984 0 0 205.568 286.272 0c4.736-39.488 26.56-69.248 52.736-69.248s47.808 29.76 52.608 69.248l36.032 0c5.312-38.464 26.752-67.136 52.416-67.136s47.104 28.672 52.416 67.136l40.448 0c5.056-39.168 26.688-68.48 52.736-68.48s47.68 29.312 52.736 68.48l74.368 0 0-30.528C734.912 154.592 665.408 82.208 665.408-5.728L665.408-5.728zM910.72-15.264l0-19.136-48.768 0 0-26.304 48.768 0 0-19.456-48.768 0 0-38.336-25.152 0 0 38.336-50.688 0 0 19.456 50.688 0 0 26.304-50.688 0 0 19.136 43.136 0-52.672 86.528 28.352 0c24.64-42.944 39.616-70.272 44.864-81.728l0.512 0c1.728 4.8 6.656 14.4 14.656 28.672l30.144 53.056 26.816 0-53.184-86.528L910.72-15.264 910.72-15.264zM910.72-15.264"  horiz-adv-x="1024" />

    
    <glyph glyph-name="tuichu6" unicode="&#58939;" d="M787.933867-151.959467 147.319467-151.959467c-42.871467 0-77.7216 34.850133-77.7216 77.687467L69.597867 674.272c0 42.871467 34.850133 77.7216 77.7216 77.7216l636.2112 0c13.4144 0 24.405333 11.025067 24.405333 24.541867 0 11.810133-8.533333 22.084267-20.002133 24.1664L147.319467 800.701867c-69.700267 0-126.464-56.7296-126.464-126.464l0-748.544c0-69.7344 56.7296-126.464 126.464-126.464l636.2112 0c13.4144 0 24.405333 11.025067 24.405333 24.610133C807.936-164.384 799.402667-154.075733 787.933867-151.959467zM996.215467 319.626667l-149.674667 150.2208 0 0-25.1904 25.224533-28.194133 28.2624c-4.608 4.608-10.717867 7.133867-17.2032 7.133867-6.587733 0-12.731733-2.56-17.476267-7.202133-8.8064-8.840533-9.659733-22.7328-2.082133-32.426667l43.383467-43.485867 0 0L921.6 325.088 438.818133 325.088c-13.448533 0-24.405333-10.990933-24.405333-24.576 0-13.550933 10.9568-24.541867 24.405333-24.541867L921.6 275.970133l-110.523733-110.967467-7.0656-6.8608-51.6096-51.848533c-4.983467-10.1376-3.549867-21.8112 4.130133-29.3888 4.539733-4.573867 10.683733-7.0656 17.339733-7.0656 7.2704 0 14.199467 2.935467 19.592533 8.2944l13.5168 13.482667 37.137067 37.341867 7.0656 6.894933 144.9984 145.544533c4.8128 4.8128 7.202133 11.434667 6.8608 18.6368l0 0.477867L1003.042133 301.024C1003.383467 308.260267 1000.994133 314.848 996.215467 319.626667z"  horiz-adv-x="1024" />

    
    <glyph glyph-name="duigou" unicode="&#58903;" d="M378.410667-38.450963C364.491852-38.450963 350.610963-33.293037 340.02963-22.939259L20.920889 288.470519C-0.279704 309.178074-0.279704 342.704593 20.920889 363.412148 42.121481 384.119704 76.48237 384.119704 97.682963 363.412148L378.410667 89.473185 925.75763 623.508148C946.958222 644.215704 981.319111 644.215704 1002.519704 623.508148 1023.720296 602.838519 1023.720296 569.312 1002.519704 548.604444L416.791704-22.939259C406.172444-33.293037 392.291556-38.450963 378.410667-38.450963L378.410667-38.450963Z"  horiz-adv-x="1024" />

    
    <glyph glyph-name="wujiaoxing" unicode="&#59072;" d="M1024 420.874667 638.677333 429.109333 512.042667 812 385.408 429.109333 0 420.874667 307.2 175.968 195.626667-212 512.042667 19.552 828.501333-212 716.8 175.968Z"  horiz-adv-x="1024" />

    
    <glyph glyph-name="iconfont00743" unicode="&#58930;" d="M51.944007 631.800027l0-709.878683 921.750167 0L973.694174 631.800027 51.944007 631.800027 51.944007 631.800027zM936.289028-39.854419 94.809759-39.854419 94.809759 589.616851l841.479269 0L936.289028-30.29836 936.289028-39.854419zM845.09692 379.383549l-362.857219 0 0 32.490601 362.857219 0L845.09692 379.383549 845.09692 379.383549zM845.09692 242.322357l-362.857219 0 0 32.354086 362.857219 0L845.09692 242.322357 845.09692 242.322357zM845.09692 105.12465l-362.857219 0L482.239701 137.615251l362.857219 0L845.09692 105.12465 845.09692 105.12465zM845.09692 105.12465M401.422744 412.556726l-82.045594-138.562858 71.670444 0 0-24.709239-87.915745 0 0-39.043328 87.915745 0 0-24.709239-87.915745 0 0-81.636049-32.217571 0 0 81.636049-87.369684 0 0 24.709239 87.369684 0 0 39.043328-87.369684 0 0 24.709239 71.260899 0-82.864685 138.562858 35.90348 0 79.724837-135.832556 78.905746 135.832556L401.422744 412.556726z"  horiz-adv-x="1024" />

    
    <glyph glyph-name="rili" unicode="&#59015;" d="M283.567079 619.921649C310.037229 619.921649 331.52025 641.404669 331.52025 667.874819L331.52025 763.781161C331.52025 790.251311 310.037229 811.734331 283.567079 811.734331 257.06496 811.734331 235.613908 790.251311 235.613908 763.781161L235.613908 667.874819C235.613908 641.404669 257.06496 619.921649 283.567079 619.921649L283.567079 619.921649ZM740.432921 619.921649C766.93504 619.921649 788.386092 641.404669 788.386092 667.874819L788.386092 763.781161C788.386092 790.251311 766.93504 811.734331 740.432921 811.734331 713.962771 811.734331 692.47975 790.251311 692.47975 763.781161L692.47975 667.874819C692.47975 641.404669 713.962771 619.921649 740.432921 619.921649L740.432921 619.921649ZM975.547317 667.874819 975.547317-163.313473 48.452683-163.313473 48.452683 667.874819 155.691957 667.874819 155.691957 651.890429C155.691957 590.206667 205.898927 539.999697 267.582689 539.999697L299.551469 539.999697C361.235231 539.999697 411.442201 590.206667 411.442201 651.890429L411.442201 667.874819 612.557799 667.874819 612.557799 651.890429C612.557799 590.206667 662.764769 539.999697 724.448531 539.999697L756.417311 539.999697C818.101073 539.999697 868.308043 590.206667 868.308043 651.890429L868.308043 667.874819 975.547317 667.874819 975.547317 667.874819ZM991.531707 715.82799 820.354872 715.82799 820.354872 651.890429C820.354872 616.580911 791.726829 587.952868 756.417311 587.952868L724.448531 587.952868C689.139013 587.952868 660.51097 616.580911 660.51097 651.890429L660.51097 715.82799 363.48903 715.82799 363.48903 651.890429C363.48903 616.580911 334.860987 587.952868 299.551469 587.952868L267.582689 587.952868C232.273171 587.952868 203.645128 616.580911 203.645128 651.890429L203.645128 715.82799 32.468293 715.82799C14.821526 715.82799 0.499512 701.505976 0.499512 683.859209L0.499512-179.297864C0.499512-196.944631 14.821526-211.266644 32.468293-211.266644L991.531707-211.266644C1009.178474-211.266644 1023.500488-196.944631 1023.500488-179.297864L1023.500488 683.859209C1023.500488 701.505976 1009.178474 715.82799 991.531707 715.82799L991.531707 715.82799 991.531707 715.82799ZM304.202927-44.101891C304.202927-61.748658 289.880913-76.070671 272.234146-76.070671L144.359024-76.070671C126.712258-76.070671 112.390244-61.748658 112.390244-44.101891L112.390244-12.133111C112.390244 5.513656 126.712258 19.83567 144.359024 19.83567L272.234146 19.83567C289.880913 19.83567 304.202927 5.513656 304.202927-12.133111L304.202927-44.101891 304.202927-44.101891ZM304.202927 148.382136C304.202927 130.735369 289.880913 116.413356 272.234146 116.413356L144.359024 116.413356C126.712258 116.413356 112.390244 130.735369 112.390244 148.382136L112.390244 180.350917C112.390244 197.997684 126.712258 212.319697 144.359024 212.319697L272.234146 212.319697C289.880913 212.319697 304.202927 197.997684 304.202927 180.350917L304.202927 148.382136 304.202927 148.382136ZM304.202927 340.866164C304.202927 323.219397 289.880913 308.897383 272.234146 308.897383L144.359024 308.897383C126.712258 308.897383 112.390244 323.219397 112.390244 340.866164L112.390244 372.834944C112.390244 390.481711 126.712258 404.803725 144.359024 404.803725L272.234146 404.803725C289.880913 404.803725 304.202927 390.481711 304.202927 372.834944L304.202927 340.866164 304.202927 340.866164ZM607.906341-44.101891C607.906341-61.748658 593.600312-76.070671 575.937561-76.070671L448.062439-76.070671C430.415672-76.070671 416.093659-61.748658 416.093659-44.101891L416.093659-12.133111C416.093659 5.513656 430.415672 19.83567 448.062439 19.83567L575.937561 19.83567C593.600312 19.83567 607.906341 5.513656 607.906341-12.133111L607.906341-44.101891 607.906341-44.101891ZM607.906341 148.382136C607.906341 130.735369 593.600312 116.413356 575.937561 116.413356L448.062439 116.413356C430.415672 116.413356 416.093659 130.735369 416.093659 148.382136L416.093659 180.350917C416.093659 197.997684 430.415672 212.319697 448.062439 212.319697L575.937561 212.319697C593.600312 212.319697 607.906341 197.997684 607.906341 180.350917L607.906341 148.382136 607.906341 148.382136ZM607.906341 340.866164C607.906341 323.219397 593.600312 308.897383 575.937561 308.897383L448.062439 308.897383C430.415672 308.897383 416.093659 323.219397 416.093659 340.866164L416.093659 372.834944C416.093659 390.481711 430.415672 404.803725 448.062439 404.803725L575.937561 404.803725C593.600312 404.803725 607.906341 390.481711 607.906341 372.834944L607.906341 340.866164 607.906341 340.866164ZM911.609756-44.101891C911.609756-61.748658 897.287742-76.070671 879.640976-76.070671L751.765854-76.070671C734.119087-76.070671 719.797073-61.748658 719.797073-44.101891L719.797073-12.133111C719.797073 5.513656 734.119087 19.83567 751.765854 19.83567L879.640976 19.83567C897.287742 19.83567 911.609756 5.513656 911.609756-12.133111L911.609756-44.101891 911.609756-44.101891ZM911.609756 148.382136C911.609756 130.735369 897.287742 116.413356 879.640976 116.413356L751.765854 116.413356C734.119087 116.413356 719.797073 130.735369 719.797073 148.382136L719.797073 180.350917C719.797073 197.997684 734.119087 212.319697 751.765854 212.319697L879.640976 212.319697C897.287742 212.319697 911.609756 197.997684 911.609756 180.350917L911.609756 148.382136 911.609756 148.382136ZM911.609756 340.866164C911.609756 323.219397 897.287742 308.897383 879.640976 308.897383L751.765854 308.897383C734.119087 308.897383 719.797073 323.219397 719.797073 340.866164L719.797073 372.834944C719.797073 390.481711 734.119087 404.803725 751.765854 404.803725L879.640976 404.803725C897.287742 404.803725 911.609756 390.481711 911.609756 372.834944L911.609756 340.866164 911.609756 340.866164Z"  horiz-adv-x="1024" />

    
    <glyph glyph-name="mima" unicode="&#58917;" d="M186.181818 346.430334 186.181818 346.430334 186.181818-118.79397C186.181818-144.240943 207.163581-165.454545 233.045898-165.454545L790.9541-165.454545C816.87511-165.454545 837.818182-144.563894 837.818182-118.79397L837.818182 346.430334C837.818182 371.877308 816.836417 393.090909 790.9541 393.090909L233.045898 393.090909C207.124888 393.090909 186.181818 372.200258 186.181818 346.430334L186.181818 346.430334ZM139.636364 346.430334 139.636364 346.430334C139.636364 397.959399 181.471225 439.636364 233.045898 439.636364L790.9541 439.636364C842.435621 439.636364 884.363636 397.690841 884.363636 346.430334L884.363636-118.79397C884.363636-170.323037 842.528777-212 790.9541-212L233.045898-212C181.564377-212 139.636364-170.054479 139.636364-118.79397L139.636364 346.430334ZM372.363636 300l279.272727 0 0-46.545455-279.272727 0 0 46.545455ZM279.272727 416.363636 279.272727 532.340798C279.272727 660.990348 383.660424 765.454545 512 765.454545 640.671279 765.454545 744.727273 661.356665 744.727273 532.340798 744.727273 519.487626 755.146826 509.068071 768 509.068071 780.853174 509.068071 791.272727 519.487626 791.272727 532.340798 791.272727 687.058816 666.381819 812 512 812 357.946443 812 232.727273 686.689063 232.727273 532.340798L232.727273 416.363636C232.727273 403.510464 243.146828 393.090909 256 393.090909 268.853172 393.090909 279.272727 403.510464 279.272727 416.363636L279.272727 416.363636Z"  horiz-adv-x="1024" />

    
    <glyph glyph-name="zhanghuguanli" unicode="&#58968;" d="M518.213263-208.468966c-197.737931 0-370.758621 28.248276-464.331034 77.682759-40.606897 21.186207-58.262069 56.496552-52.965517 105.931034l0 1.765517c0 3.531034 1.765517 7.062069 1.765517 10.593103 5.296552 123.586207 169.489655 220.689655 333.682759 263.062069l17.655172-65.324138c-164.193103-42.372414-282.482759-128.882759-282.482759-203.034483C71.537401-26.62069 71.537401-31.917241 69.771883-35.448276c-1.765517-14.124138 0-26.482759 17.655172-35.310345 82.97931-44.137931 245.406897-68.855172 432.551724-68.855172 114.758621 0 222.455172 10.593103 308.965517 28.248276l14.124138-67.089655C751.261538-197.875862 640.033952-208.468966 518.213263-208.468966zM519.97878 111.089655c-164.193103 0-298.372414 157.131034-298.372414 347.806897C219.840849 653.103448 354.020159 808.468966 519.97878 808.468966c164.193103 0 298.372414-157.131034 298.372414-347.806897C818.351194 268.22069 684.171883 111.089655 519.97878 111.089655zM519.97878 739.613793c-127.117241 0-231.282759-125.351724-231.282759-280.717241 0-155.365517 104.165517-280.717241 231.282759-280.717241 127.117241 0 231.282759 125.351724 231.282759 280.717241C749.496021 614.262069 647.096021 739.613793 519.97878 739.613793zM910.15809-174.924138c-14.124138 0-26.482759 12.358621-26.482759 26.482759L883.675332 116.386207c0 14.124138 12.358621 26.482759 26.482759 26.482759 14.124138 0 26.482759-12.358621 26.482759-26.482759l0-263.062069C936.640849-162.565517 926.047745-174.924138 910.15809-174.924138L910.15809-174.924138zM1016.089125 36.937931l-211.862069 0c-14.124138 0-26.482759 12.358621-26.482759 26.482759 0 14.124138 12.358621 26.482759 26.482759 26.482759l211.862069 0c14.124138 0 26.482759-12.358621 26.482759-26.482759C1042.571883 47.531034 1030.213263 36.937931 1016.089125 36.937931L1016.089125 36.937931zM910.15809 89.903448c-7.062069 0-14.124138 1.765517-19.42069 7.062069-10.593103 10.593103-10.593103 26.482759 0 37.075862l105.931034 105.931034c10.593103 10.593103 26.482759 10.593103 37.075862 0 10.593103-10.593103 10.593103-26.482759 0-37.075862l-105.931034-105.931034C924.282228 91.668966 917.220159 89.903448 910.15809 89.903448L910.15809 89.903448zM910.15809 89.903448c-7.062069 0-14.124138 1.765517-19.42069 7.062069l-105.931034 105.931034c-10.593103 10.593103-10.593103 26.482759 0 37.075862 10.593103 10.593103 26.482759 10.593103 37.075862 0l105.931034-105.931034c10.593103-10.593103 10.593103-26.482759 0-37.075862C924.282228 91.668966 917.220159 89.903448 910.15809 89.903448L910.15809 89.903448zM1016.089125-68.993103l-211.862069 0c-14.124138 0-26.482759 12.358621-26.482759 26.482759 0 14.124138 12.358621 26.482759 26.482759 26.482759l211.862069 0c14.124138 0 26.482759-12.358621 26.482759-26.482759C1042.571883-56.634483 1030.213263-68.993103 1016.089125-68.993103L1016.089125-68.993103z"  horiz-adv-x="1043" />

    
    <glyph glyph-name="yaochi2" unicode="&#59026;" d="M788.105481 312.493037 788.105481 466.174815c0 147.307852-119.412148 266.718815-266.718815 266.718815S254.666667 613.481481 254.666667 466.174815l0-153.675852c-72.476444-41.921185-121.236148-120.272593-121.236148-210.032593 0-133.903407 108.544-242.472296 242.471111-242.472296l290.966519 0c133.904593 0 242.473481 108.567704 242.473481 242.472296C909.342815 192.22163 860.576 270.570667 788.105481 312.493037zM521.386667 5.476741c-26.780444 0-48.494222 21.714963-48.494222 48.495407 0 18.270815 10.110815 34.176 25.037037 42.443852-0.497778 1.937778-0.790519 3.957333-0.790519 6.05037l0 72.741926c0 13.403259 10.844444 24.247704 24.247704 24.247704s24.247704-10.844444 24.247704-24.247704l0-72.741926c0-2.094222-0.292741-4.113778-0.790519-6.049185 14.927407-8.269037 25.037037-24.173037 25.037037-42.445037C569.880889 27.191704 548.169481 5.476741 521.386667 5.476741zM691.118222 343.734519c-7.975111 0.791704-16.065185 1.204148-24.248889 1.204148L375.902815 344.938667c-8.183704 0-16.271407-0.411259-24.246519-1.202963L351.656296 466.174815c0 93.744593 75.985778 169.731556 169.73037 169.731556s169.731556-75.986963 169.731556-169.731556L691.118222 343.734519z"  horiz-adv-x="1024" />

    
    <glyph glyph-name="xiangzuo" unicode="&#59348;" d="M310.104245 300 708.979792 748.576505 713.894731 746.553429 713.894731 686.132314 372.915803 300 713.894731-82.085138 713.894731-146.514543 708.382181-148.575482Z"  horiz-adv-x="1024" />

    
    <glyph glyph-name="17" unicode="&#58899;" d="M719.051171 473.289742c18.374486 0 35.601846 7.150864 48.501644 19.9821 12.94994 12.898775 20.084431 30.0412 20.084431 48.278563s-7.202029 35.344996-20.084431 48.15986c-25.970488 25.849738-70.929446 25.781176-96.899934 0-26.688849-26.569122-26.63666-69.851904 0-96.386234C683.569052 480.440605 700.797435 473.289742 719.051171 473.289742M692.927187 567.623223c7.013741 6.946202 16.304338 10.777461 26.175149 10.777461 9.939373 0 19.228947-3.832282 26.243711-10.829649 7.031137-6.928806 10.847046-16.202007 10.847046-26.021653 0-9.888208-3.815909-19.195178-10.847046-26.106588-7.013741-6.997368-16.304338-10.880815-26.294876-10.880815-9.819646 0-19.10922 3.883447-26.122961 10.880815C678.488337 529.79671 678.488337 553.200746 692.927187 567.623223M879.028723 700.688845c-3.010567 3.198855-7.476275 5.303796-11.856026 4.567016l-354.152972-18.065448c-3.935636-0.170892-7.526417-1.762133-10.31595-4.550643l-411.028331-409.240615c-2.960425-2.874467-4.627391-6.860245-4.627391-11.017938 0-4.207835 1.667989-8.17724 4.627391-11.06808l335.873654-334.478887c3.079128-3.010567 7.133468-4.550643 11.18883-4.550643 3.986801 0 7.989975 1.540076 11.069103 4.550643l411.088706 409.223219c2.789533 2.789533 4.397147 6.41613 4.619204 10.264784l18.135032 352.527962C883.88738 693.264758 882.210181 697.574924 879.028723 700.688845M834.410526 343.952025 438.736904-49.943091 124.992247 262.381218l395.673621 393.912511 330.74996 16.868179L834.410526 343.952025zM352.922447 139.751273c3.079128-3.062755 7.134491-4.601808 11.18883-4.601808 3.985778 0 7.988951 1.539053 11.06808 4.601808l187.144284 186.306196c6.160303 6.141884 6.160303 16.012695 0 22.154579-6.123464 6.074346-16.09763 6.074346-22.204721 0L352.922447 161.923248C346.76419 155.79876 346.76419 145.893156 352.922447 139.751273M487.682663 422.513288c-6.15928 6.055926-16.081257 6.055926-22.223141 0L278.349007 236.206068c-6.15928-6.124488-6.15928-16.030092 0-22.103414 3.079128-3.080152 7.03216-4.584412 11.069103-4.584412 4.054339 0 8.058536 1.505283 11.137665 4.584412l187.127911 186.255031C493.789755 406.499569 493.789755 416.371404 487.682663 422.513288"  horiz-adv-x="1024" />

    
    <glyph glyph-name="pinglun" unicode="&#58962;" d="M507.809561 8.611513c-23.568788 0-46.530756 2.128477-68.876694 5.821589l-161.41325-97.94166L277.519618 79.538913c-84.165912 59.096956-138.173966 149.70458-138.173966 251.474428 0 178.059372 164.968216 322.401828 368.463909 322.401828 203.483414 0 368.459816-144.346549 368.459816-322.401828C876.269377 152.936573 711.288882 8.611513 507.809561 8.611513L507.809561 8.611513zM507.809561 607.361273c-178.063465 0-322.405921-123.735116-322.405921-276.347932 0-93.64582 54.476729-176.268586 137.601938-226.245837l-1.452071-106.823957 108.407012 65.174372c24.972764-5.327332 50.947346-8.457626 77.850066-8.457626 178.067558 0 322.401828 123.712603 322.401828 276.353049C830.211389 483.627181 685.877119 607.361273 507.809561 607.361273L507.809561 607.361273z"  horiz-adv-x="1024" />

    
    <glyph glyph-name="xiangxia" unicode="&#58925;" d="M1022.976 587.776 594.944 159.744c-43.008-43.008-113.664-43.008-156.672 0L9.216 588.8c-12.288 11.264-12.288 30.72 0 43.008 11.264 12.288 30.72 12.288 43.008 0l430.08-429.056c9.216-9.216 21.504-14.336 34.816-14.336 13.312 0 25.6 5.12 34.816 14.336l428.032 428.032c11.264 12.288 30.72 12.288 43.008 0 6.144-6.144 9.216-13.312 9.216-21.504S1029.12 593.92 1022.976 587.776z"  horiz-adv-x="1033" />

    
    <glyph glyph-name="icon2" unicode="&#59010;" d="M510.251681 679.79689c-140.642181 0-254.656911-114.013707-254.656911-254.654864 0-88.484264 45.137013-166.417217 113.63406-212.05872l0-172.743296 283.856953 0 0 173.951821c67.479881 45.803185 111.818715 123.144668 111.818715 210.849172C764.904499 565.783183 650.891815 679.79689 510.251681 679.79689zM644.995525 287.861406c-15.053857-14.779611-32.537044-27.085892-51.801806-36.264948l0-142.501528L429.118849 109.09493 429.118849 251.494127c-19.352767 9.188266-36.912701 21.531386-52.024887 36.367279-35.354206 34.70236-57.292867 83.023902-57.292867 136.477324 0 105.620549 85.6231 191.243649 191.245695 191.243649 105.619526 0 191.241602-85.622076 191.241602-191.243649C702.288392 370.884284 680.348708 322.563766 644.995525 287.861406zM383.660518 0.85574l256.082376 0 0-64.310701-256.082376 0 0 64.310701ZM159.527083 205.182534l70.845699 70.845699 45.473373-45.473373-70.845699-70.845699-45.473373 45.473373ZM127.675356 511.972627l100.19191 0 0-64.310701-100.19191 0 0 64.310701ZM237.572121 767.702315l70.845699-70.845699-45.474097-45.474097-70.845699 70.845699 45.474097 45.474097ZM480.059032 832.284863l64.310701 0 0-100.19191-64.310701 0 0 100.19191ZM833.361813 723.245803l-70.845699-70.845699-45.474821 45.474821 70.845699 70.845699 45.474821-45.474821ZM795.189246 512.48121l100.192933 0 0-64.311725-100.192933 0 0 64.311725ZM818.908129 160.197526l-70.846423 70.846423 45.474097 45.474097 70.846423-70.846423-45.474097-45.474097Z"  horiz-adv-x="1024" />

    
    <glyph glyph-name="xiangxia1" unicode="&#58931;" d="M467.231 115.447 19.669 563.009c-24.753 24.752-24.753 64.788 0 89.541 24.681 24.682 64.788 24.753 89.541 0l402.792-402.791L914.793 652.55c24.682 24.682 64.788 24.753 89.541 0 24.753-24.752 24.681-64.788 0-89.541L556.771 115.447C532.02 90.766 491.984 90.766 467.231 115.447z"  horiz-adv-x="1024" />

    
    <glyph glyph-name="xiangxia2" unicode="&#58955;" d="M922.311423 242.321364l-177.042136 177.042136-31.24273-31.24273 208.284866-208.284866 208.284866 208.284866-31.24273 31.24273L922.311423 242.321364zM922.311423 242.321364"  horiz-adv-x="1846" />

    
    <glyph glyph-name="fenlei5" unicode="&#59118;" d="M455.211623 279.210511c56.378032-110.245893 191.453427-153.914462 301.69932-97.53643 110.245893 56.378032 153.914462 191.453427 97.53643 301.69932C798.069341 593.619294 662.993946 637.287863 552.748053 580.909831 442.50216 524.531799 398.833591 389.456405 455.211623 279.210511zM570.58428 546.031463c90.983177 46.527686 202.458061 10.488889 248.984724-80.494289 46.527686-90.983177 10.488889-202.457038-80.494289-248.984724-90.983177-46.527686-202.458061-10.488889-248.984724 80.494289C443.562305 388.029916 479.601102 499.5048 570.58428 546.031463zM879.091656 10.281549l-63.35084 123.881448c-6.982018 13.653975-23.711028 19.062148-37.366026 12.08013l-6.444782-3.296069c-13.653975-6.982018-19.062148-23.712051-12.08013-37.366026l63.35084-123.881448c6.982018-13.653975 23.712051-19.062148 37.366026-12.08013l6.444782 3.295046C880.665501-20.101435 886.074697-3.372425 879.091656 10.281549zM134.301775 560.397658l302.591643 0c12.17632 0 22.047132 9.870812 22.047132 22.047132s-9.870812 22.047132-22.047132 22.047132l-302.591643 0c-12.17632 0-22.047132-9.870812-22.047132-22.047132S122.125455 560.397658 134.301775 560.397658zM134.301775 362.686714l224.027309 0c12.17632 0 22.047132 9.870812 22.047132 22.047132s-9.870812 22.047132-22.047132 22.047132L134.301775 406.780978c-12.17632 0-22.047132-9.870812-22.047132-22.047132S122.125455 362.686714 134.301775 362.686714zM134.301775 164.97577l288.98781 0c12.17632 0 22.047132 9.870812 22.047132 22.047132 0 12.17632-9.870812 22.047132-22.047132 22.047132L134.301775 209.070035c-12.17632 0-22.047132-9.870812-22.047132-22.047132C112.25362 174.847605 122.125455 164.97577 134.301775 164.97577zM729.026872 9.571375 132.512013 9.571375c-11.18883 0-20.258393-9.069563-20.258393-20.258393s9.069563-20.258393 20.258393-20.258393l596.514859 0c11.18883 0 20.258393 9.069563 20.258393 20.258393S740.214678 9.571375 729.026872 9.571375z"  horiz-adv-x="1024" />

    
    <glyph glyph-name="tuichu3" unicode="&#58919;" d="M933.226667 287.776c3.605333 3.648 5.397333 8.405333 5.397333 13.141333 0 0.085333-0.021333 0.170667-0.021333 0.234667 0.021333 0.341333 0.042667 0.618667 0.042667 0.96 0 0.682667-0.021333 1.344-0.106667 2.026667-0.362667 4.202667-2.133333 8.362667-5.333333 11.605333l-319.722667 324.437333c-7.274667 7.381333-19.136 7.488-26.538667 0.213333-7.381333-7.296-7.466667-19.157333-0.192-26.538667l288.704-292.949333-555.498667-0.021333c-10.346667 0-18.752-8.405333-18.752-18.752 0-10.368 8.405333-18.773333 18.752-18.773333l556.202667 0.021333-292.885333-297.194667c-7.274667-7.381333-7.189333-19.242667 0.192-26.538667 7.402667-7.274667 19.264-7.168 26.538667 0.213333L933.226667 287.776zM362.666667 660.128l-216.896 0c-33.322667 0-60.437333-27.114667-60.437333-60.437333l0-599.36c0-33.344 27.114667-60.458667 60.437333-60.458667L362.666667-60.128c10.346667 0 18.730667 8.405333 18.730667 18.773333 0 10.346667-8.384 18.752-18.730667 18.752l-216.896 0c-12.650667 0-22.933333 10.261333-22.933333 22.933333l0 599.36c0 12.650667 10.282667 22.933333 22.933333 22.933333l216.896-0.021333c10.346667 0 18.730667 8.405333 18.730667 18.773333C381.397333 651.722667 373.013333 660.128 362.666667 660.128z"  horiz-adv-x="1024" />

    
    <glyph glyph-name="biaoqian2" unicode="&#58902;" d="M918.468478 275.836671 498.457566 714.939407c-14.702863 19.99745-37.801954 32.951483-63.778582 32.951483L162.569586 747.89089c-44.251853 0-80.419588-37.639249-80.419588-84.070744l0-276.046057c0-27.073612 12.365632-51.288107 31.541367-66.696028l424.026366-443.300338c31.41243-32.840966 82.226746-32.602535 113.707738 0.310062l266.747273 278.871405C949.600523 189.817552 949.785741 243.095989 918.468478 275.836671zM886.061394 187.690098 619.305935-91.178237c-13.502525-14.19735-36.07973-14.32731-49.452295-0.303922L145.798621 351.806923l-4.254907 3.908006c-9.334599 7.511067-14.935154 19.493983-14.935154 32.041764L126.608559 663.801726c0 21.838378 16.107863 39.639812 35.94977 39.639812l272.13805 0c10.81123 0 21.013593-5.427616 28.003797-14.892175l423.621137-443.462021C901.126508 229.630303 900.996548 203.320077 886.061394 187.690098zM210.66907 619.343165c-29.421077-30.001291-29.060873-79.192643 0.76441-109.584837 14.980179-15.239076 34.909068-23.661909 56.142671-23.661909 20.828374 0 40.308031 8.118911 54.837956 22.924105 29.421077 30.001291 29.060873 79.149665-0.719384 109.541859C291.914466 648.82257 240.090147 649.257475 210.66907 619.343165zM288.944831 539.585657c-5.713119-5.817496-13.316284-9.030677-21.36868-9.030677-8.457626 0-16.510022 3.473101-22.673395 9.768481-13.316284 13.546527-13.675464 35.297924-0.809435 48.409546 5.758144 5.861498 13.361309 9.074679 21.413706 9.074679 8.457626 0 16.510022-3.473101 22.718421-9.812483C301.496705 574.449699 301.855886 552.741281 288.944831 539.585657z"  horiz-adv-x="1024" />

    
    <glyph glyph-name="mima1" unicode="&#58985;" d="M522.368 885.6064c-144.1536 0-252.9024-114.6624-252.9024-266.752l0-93.7472-8.192 0c-75.776 0-137.4464-63.3088-137.4464-141.0816l0-360.5248c0-77.7728 61.6704-141.1072 137.4464-141.1072l524.3392 0c75.776 0 137.4464 63.3344 137.4464 141.1072L923.0592 384.0256c0 77.7728-61.6704 141.0816-137.4464 141.0816l-4.5056 0c-1.2032 0.4352-2.4576 0.5632-3.712 0.768l0 93.0048C777.4464 770.9184 667.8016 885.6064 522.368 885.6064L522.368 885.6064zM522.368 843.776c123.52 0 213.248-94.592 213.248-224.9472l0-92.3648L311.3216 526.464l0 92.3648C311.3216 749.184 400.0768 843.776 522.368 843.776L522.368 843.776zM881.28 384.0256l0-360.5248c0-54.7328-42.9312-99.2768-95.616-99.2768L261.2992-75.776c-52.736 0-95.616 44.544-95.616 99.2768L165.6832 384.0256c0 54.7072 42.88 99.2512 95.616 99.2512l50.0224 0 0 1.3824 424.2688 0 0-1.3824 50.048 0C838.3488 483.2512 881.28 438.7328 881.28 384.0256L881.28 384.0256zM881.28 384.0256M518.8608 327.9616c-33.5104 0-60.672-28.0064-60.672-62.5664 0-23.1168 12.2368-43.3408 30.336-54.1696l0-102.1952c0-17.2544 13.568-31.3088 30.336-31.3088 16.7424 0 30.336 14.0544 30.336 31.3088L549.1968 211.2c18.0992 10.8288 30.3104 31.0272 30.3104 54.1696C579.456 299.9296 552.32 327.9616 518.8608 327.9616L518.8608 327.9616zM518.8608 327.9616"  horiz-adv-x="1024" />

    
    <glyph glyph-name="querenxinjiaoyimima" unicode="&#59018;" d="M632.81153 459.443249c9.153474 2.716878 18.530029 4.931313 28.097942 6.617721 22.443152 48.854685 12.778024 108.589161-28.287253 147.801231-51.748594 49.418526-133.762493 47.52234-183.178973-4.228301-49.41648-51.750641-47.52541-133.76761 4.228301-183.187159 19.806091-18.914792 44.047192-30.302143 69.194942-34.264385C552.587394 423.339983 590.272691 446.816674 632.81153 459.443249zM478.273874 582.104917c34.213219 35.82595 90.991364 37.138852 126.815267 2.924609 35.827997-34.21015 37.141922-90.991364 2.928702-126.820384-34.212196-35.834136-90.990341-37.138852-126.814244-2.924609C445.37458 489.493659 444.061678 546.274874 478.273874 582.104917zM458.907805 270.665769c0.99363 4.730745 2.13257 9.404184 3.384074 14.030551-4.928243 1.690502-9.8176 3.530406-14.655791 5.539156l-35.55682 20.4958L269.463128 161.375643l28.835745-27.538193c7.966439-7.607258 8.256034-20.211321 0.650823-28.182876-7.611352-7.966439-20.216437-8.256034-28.182876-0.645706l-28.831652 27.528983L186.870038 74.87557c0 0-42.788525-4.002151-56.358589 8.959046-15.177678 14.492062-15.715937 59.864436-15.715937 59.864436L338.927199 378.429121l-21.034059 35.701107c-42.535769 90.442872-27.052123 200.478987 45.058219 278.099832 34.916231 37.585013 80.762395 60.981886 126.068254 70.248947 33.422204 6.836709 28.105105 41.399899-11.281951 35.518958-41.259706-6.160303-96.960309-29.061896-143.616932-78.233805-88.294952-93.054349-103.106286-229.103932-45.521776-336.308559L64.025199 148.001031c0 0 5.683443-75.221192 34.516118-102.755292 28.827559-27.528983 91.494831-17.411555 91.494831-17.411555l53.199643 48.336892c23.887037-22.811542 61.727876-21.938662 84.541465 1.954515 22.810518 23.887037 21.937638 61.734016-1.949398 84.545558l92.514043 96.887654c11.910261-5.706979 24.124444-10.546194 36.549427-14.525831 0.25071 2.362814 0.524956 4.717442 0.839111 7.059789C456.568527 258.360512 457.624579 264.556631 458.907805 270.665769zM821.448818 442.048067c27.838022 99.538017 1.25662 210.787774-78.70555 287.146882-38.628786 36.884049-94.462418 65.618487-160.616094 72.068386-34.619472 3.374864-38.980803-33.086559-9.172917-36.885072 48.548716-6.185886 101.785198-28.106128 142.260028-64.017012 70.252017-62.330604 92.645027-157.319002 69.581752-242.993267 12.253068-4.012384 24.083511-8.925277 35.408441-14.675234C820.621986 442.481949 821.033355 442.261938 821.448818 442.048067zM821.448818 442.048067c-0.415462 0.213871-0.827855 0.433882-1.24434 0.645706-11.32493 5.748934-23.155373 10.662851-35.408441 14.675234-1.413186 0.462534-2.828418 0.920976-4.252861 1.359974-23.680329 7.28901-48.888454 11.210319-75.077929 11.210319-8.800433 0-17.49035-0.444115-26.048259-1.308809-6.243191-0.630357-12.412704-1.494027-18.507516-2.568499-9.567913-1.686409-18.944468-3.900843-28.097942-6.617721-42.538839-12.626575-80.224136-36.104289-109.945041-67.260893-4.456498-4.672416-8.739035-9.512654-12.827143-14.520715-15.364943-18.820648-28.063149-39.920198-37.495986-62.766532-4.030803-9.763364-7.451716-19.848047-10.251481-30.198789-1.251503-4.626367-2.391467-9.299807-3.384074-14.030551-1.282203-6.109138-2.339278-12.304234-3.178389-18.571984-0.313132-2.342348-0.588401-4.696975-0.839111-7.059789-0.943488-8.904811-1.440815-17.949814-1.440815-27.120684 0-27.075659 4.204765-53.096289 11.974729-77.469396 4.28663-13.44829 9.657964-26.393113 16.021905-38.73214 41.754986-80.942497 126.023228-135.824455 224.019123-135.824455 140.006707 0 252.013711 112.013143 252.013711 252.02599C957.478957 315.996187 902.503878 400.328897 821.448818 442.048067zM705.464223 12.558269c-69.143777 0-131.162272 35.57831-168.512948 89.152483-8.411577 12.06478-15.569604 25.041326-21.277606 38.73214-10.003841 23.99653-15.559371 50.175773-15.559371 77.469396 0 5.536087 0.232291 11.026124 0.679475 16.46295 1.110287 13.490246 3.574409 26.640754 7.243985 39.320541 0.913812 3.158946 1.89414 6.29231 2.956332 9.390881 8.751315 25.520233 22.459524 48.89664 39.931454 68.941162 10.94119 12.551874 23.360034 23.793916 36.960797 33.4396 22.033829 15.626909 47.175439 27.045983 74.179466 33.033347 14.023388 3.108804 28.54308 4.765537 43.397393 4.765537 21.86396 0 43.010583-3.568269 62.895469-10.128685 4.436032-1.463328 8.810666-3.072989 13.114692-4.827959 8.002254-3.263323 15.756869-7.034207 23.24133-11.247158 5.304819-2.986007 10.477632-6.187933 15.488763-9.618055 54.384631-37.236066 90.603531-99.759051 90.603531-169.531138C910.808008 105.899144 817.471227 12.558269 705.464223 12.558269zM831.469032 301.919587l-11.264555-11.264555-38.730093-38.73214-94.676289-94.681406-74.674747 70.003354-32.66905-32.66905 54.133921-54.133921 38.73214-38.73214 28.954449 0 38.730093 38.73214 41.469484 41.470507 38.730093 38.73214 48.601928 48.603975L831.469032 301.919587z"  horiz-adv-x="1024" />

    
    <glyph glyph-name="querenxinmima1" unicode="&#59019;" d="M446.082708 355.84987c-20.175505 0-36.523845-16.359596-36.523845-36.536125 0-13.525038 7.349385-25.327852 18.257829-31.642674l0-59.708893c0-3.891633 1.215688-12.929474 3.287883-22.566972 0.791016 5.912663 1.787716 11.757788 2.997264 17.521049 3.032056 14.449084 7.359618 28.398794 12.859889 41.72531 8.895601 21.552875 20.87033 41.458227 35.360346 59.21259C480.084103 341.886857 464.720184 355.84987 446.082708 355.84987zM190.405561 100.065276c-20.137643 0-36.527938 16.392342-36.527938 36.536125L153.877623 392.393157c0 20.145829 16.390295 36.539194 36.527938 36.539194l511.357364 0c17.409508 0 32.014134-12.259208 35.649941-28.600385 12.989849-4.000104 25.490557-9.077749 37.402865-15.126512l0 7.188726c0 40.310078-32.763195 73.078389-73.048713 73.078389L226.929406 465.47257 226.929406 593.366402c0 110.814852 108.381429 200.974267 219.153302 200.974267 110.772896 0 222.481094-106.422821 211.636095-262.243703-0.700965-10.073426 8.17724-18.269086 18.261922-18.269086 10.094916 0 17.812691 8.18645 18.261922 18.269086C702.94689 727.69069 576.993247 830.883957 446.082708 830.883957c-130.906445 0-255.677147-106.543571-255.677147-237.517555L190.405561 465.471546c-40.293705 0-73.051783-32.772404-73.051783-73.078389L117.353778 136.6014c0-40.305985 32.759101-73.075319 73.051783-73.075319l264.950348 0c-6.002714 11.640108-11.067057 23.852244-15.110139 36.539194L190.405561 100.065276zM774.816754 385.204431c-11.912307 6.048763-24.413016 11.126408-37.402865 15.126512-22.331611 6.876618-46.104037 10.57587-70.801533 10.57587-8.299013 0-16.493649-0.419556-24.564465-1.235131-15.131629-1.528819-29.820166-4.469801-43.949978-8.665357-46.130643-13.697977-86.215594-40.927131-115.777887-77.152171-14.490016-17.755386-26.464745-37.659715-35.360346-59.21259-5.500271-13.326517-9.826809-27.276227-12.859889-41.72531-1.209548-5.763261-2.206248-11.608386-2.997264-17.521049-1.410116-10.538007-2.149966-21.298072-2.149966-32.245402 0-25.542746 3.965312-50.089815 11.292184-73.083505 4.042059-12.68695 9.107425-24.899086 15.110139-36.539194 39.375799-76.360132 118.843712-128.135332 211.256448-128.135332 132.030036 0 237.657748 105.670691 237.657748 237.758032C904.270105 266.155035 851.898317 346.060923 774.816754 385.204431zM666.612357-20.578432c-65.205071 0-123.69009 33.56342-158.913313 84.104513-7.93267 11.382235-14.682397 23.623024-20.064988 36.539194-9.43386 22.63758-14.673188 47.335075-14.673188 73.083505 0 21.413706 3.616364 42.103934 10.259668 61.48433 8.252964 24.075325 21.180392 46.128597 37.656645 65.038272 10.317996 11.841699 22.029736 22.447245 34.855856 31.546483 20.779256 14.741749 44.488237 25.515117 69.954235 31.162744 13.224186 2.932796 26.917046 4.495384 40.925085 4.495384 25.218358 0 49.427736-5.02955 71.679529-14.109346 12.894681-5.26184 25.1324-11.881608 36.523845-19.684318 51.28606-35.128055 85.441974-94.111424 85.441974-159.933549C860.258729 67.47809 772.239046-20.578432 666.612357-20.578432zM785.438673 252.400776l-10.621918-10.627035L738.292909 205.234547l-89.283466-89.321328-70.420863 66.040089-30.807656-30.818913 51.049676-51.069119 36.525891-36.539194 27.304879 0 36.523845 36.539194 39.10667 39.123043 36.523845 36.539194 45.832861 45.852304L785.438673 252.400776z"  horiz-adv-x="1024" />

    
    <glyph glyph-name="set" unicode="&#58928;" d="M514.321882 538.843624c-86.797855 0-157.412123-70.603011-157.412123-157.38961s70.613244-157.412123 157.412123-157.412123c86.787622 0 157.400866 70.624501 157.400866 157.412123S601.10848 538.843624 514.321882 538.843624zM936.577928 475.854011l-0.002047 0c-55.942103 19.893072-82.410941 83.796498-56.921407 137.420813 40.476877 85.152379-48.356334 173.986613-133.508713 133.51076l-0.002047 0c-53.624315-25.490557-117.526717 0.978281-137.420813 56.921407-31.589462 88.834234-157.220764 88.834234-188.810227 0-19.894096-55.943127-83.798545-82.411965-137.422859-56.921407-85.152379 40.476877-173.986613-48.357358-133.51076-133.51076 25.490557-53.624315-0.978281-117.52774-56.921407-137.420813-88.834234-31.591509-88.834234-157.220764 0-188.812273 55.943127-19.894096 82.411965-83.796498 56.921407-137.420813-40.476877-85.154425 48.357358-173.986613 133.51076-133.51076 53.624315 25.490557 117.52774-0.979304 137.422859-56.921407 31.589462-88.834234 157.220764-88.834234 188.810227 0 19.894096 55.942103 83.796498 82.411965 137.420813 56.921407l0.002047 0c85.152379-40.476877 173.98559 48.356334 133.508713 133.51076-25.489534 53.624315 0.979304 117.526717 56.921407 137.420813l0.002047 0C1025.411139 318.633247 1025.411139 444.262502 936.577928 475.854011zM514.322905 137.013793c-134.779659 0-244.442268 109.649306-244.442268 244.442268 0 134.766356 109.662609 244.428965 244.442268 244.428965s244.428965-109.662609 244.428965-244.428965C758.75187 246.662075 649.102564 137.013793 514.322905 137.013793z"  horiz-adv-x="1024" />

    
    <glyph glyph-name="zhanghuguanli1" unicode="&#58986;" d="M894.293333 376.469333l129.770667 54.144-39.552 166.442667-145.472-15.573333c-14.677333 24.768-31.701333 47.402667-50.837333 67.626667l53.76 130.624-145.578667 89.834667-90.858667-112.96c-31.488 8.256-63.893333 12.394667-96.682667 12.565333L451.904 896l-165.333333-44.416 19.434667-140.309333c-22.826667-14.165333-43.776-30.293333-62.421333-47.936L117.994667 715.072 28.245333 569.386667l108.053333-87.381333c-7.893333-29.738667-12.544-60.586667-13.205333-91.690667L0 339.178667l39.68-166.656L177.066667 187.306667c15.872-27.605333 34.474667-52.565333 56.021333-74.56L182.464-10.026667l145.578667-89.770667L415.36 8.533333c29.653333-7.36 59.797333-11.456 90.624-11.754667l51.712-124.778667 166.378667 39.658667-15.04 141.589333c25.706667 15.68 49.429333 33.642667 69.845333 53.888l127.530667-52.565333 89.706667 145.813333-112.874667 91.072C890.048 319.274667 893.845333 347.776 894.293333 376.469333zM512.042667 134.677333c-137.152 0-248.32 111.616-248.32 249.344s111.168 249.322667 248.32 249.322667c137.130667 0 248.32-111.616 248.32-249.322667S649.173333 134.677333 512.042667 134.677333zM512.042667 507.242667c-68.053333 0-123.221333-55.210667-123.221333-123.221333 0-68.053333 55.168-123.221333 123.221333-123.221333 68.032 0 123.2 55.168 123.2 123.221333C635.242667 452.032 580.074667 507.242667 512.042667 507.242667L512.042667 507.242667z"  horiz-adv-x="1025" />

    
    <glyph glyph-name="huigou013" unicode="&#59036;" d="M757.042437 68.938348 757.042437 316.180382l67.297732 0 0-247.242034c0-37.220716-30.077016-67.413366-67.297732-67.413366L241.129314 1.524982c-37.222763 0-67.303872 30.192649-67.303872 67.413366L173.825442 316.180382l67.303872 0 0-247.242034L757.042437 68.938348 757.042437 68.938348zM764.414335 563.430602 507.02622 780.229277 150.966828 495.933325 64.064596 495.933325 64.064596 428.633546 171.184289 428.633546 172.934143 428.633546 507.02622 689.907155 708.966489 521.712455ZM472.617549 119.306502 472.617549 197.944514 355.251491 197.944514 355.251491 237.077789 472.617549 237.077789 472.617549 271.901922 463.518311 289.464927 355.251491 289.464927 355.251491 328.592063 445.496865 328.592063 366.800525 458.845639 421.55457 458.845639 497.583151 328.592063 575.417867 458.845639 630.194424 458.845639 552.687166 328.592063 642.913097 328.592063 642.913097 289.464927 533.846052 289.464927 525.384333 271.901922 525.384333 237.077789 642.913097 237.077789 642.913097 197.944514 525.384333 197.944514 525.384333 119.306502 472.617549 119.306502ZM908.513244 464.436984c15.797801-9.416464 35.17922-34.81697 43.24185-65.393359 8.063653-30.576389 6.727215-57.956993 6.727215-57.956993s-10.440793 16.861016-14.674211 22.772656c-4.232394 5.910617-22.067598 27.933189-49.753147 40.696888-27.685549 12.763698-73.960479 10.489912-73.960479 10.489912l0-53.148477-127.536698 90.336448 127.536698 90.339518 0-53.639664c0 0 30.636764-2.304486 46.65253-5.622044C893.719306 477.723591 908.513244 464.436984 908.513244 464.436984L908.513244 464.436984zM908.513244 464.436984"  horiz-adv-x="1024" />

    
    <glyph glyph-name="1" unicode="&#58954;" d="M128.005 593.026l386.971-420.571 381.019 422.746z"  horiz-adv-x="1024" />

    
    <glyph glyph-name="xiangxia3" unicode="&#59038;" d="M862.261339 550.69965c0-39.708374 0.200568-76.340689-0.310062-112.961748-0.051165-3.659343-3.586688-8.606005-6.919597-10.689457C744.145198 357.778802 633.021308 288.889829 522.158361 219.583346c-10.280134-6.426363-17.532305-2.13564-25.708522 2.954285-73.469292 45.734624-146.983609 91.399663-220.479507 137.090285-34.744315 21.599947-69.359694 43.411719-104.318904 64.658625-7.315616 4.446265-10.073426 9.360182-9.948583 17.978467 0.50756 34.788318 0.210801 69.589938 0.210801 107.209744 6.197142-3.653203 10.832719-6.258541 15.346523-9.064446 107.431801-66.792219 214.920908-133.494387 322.143954-200.621227 8.773827-5.492084 14.845103-5.765307 23.783683-0.164752 106.797351 66.919109 213.888392 133.37159 320.906777 199.938682C849.198835 542.740374 854.348112 545.853271 862.261339 550.69965z"  horiz-adv-x="1024" />

    
    </font>
</defs>
</svg>
